<svg width="470" height="70" viewBox="0 0 470 70" fill="none" xmlns="http://www.w3.org/2000/svg">
<path d="M21.1058 56.5612C18.2625 56.5986 15.7933 56.1496 13.6982 55.2144C11.6032 54.2791 9.60165 52.8761 7.69365 51.0055C7.50659 50.8559 7.33824 50.6688 7.18859 50.4444C7.07635 50.2199 7.02024 49.958 7.02024 49.6587C7.02024 49.2098 7.18859 48.7982 7.52529 48.4241C7.89941 48.05 8.31094 47.8629 8.75988 47.8629C9.20882 47.8629 9.62035 48.05 9.99447 48.4241C11.4535 49.9954 13.0996 51.1926 14.9328 52.0156C16.8034 52.8387 18.8049 53.2502 20.9374 53.2502C22.7332 53.2502 24.3232 52.9696 25.7074 52.4085C27.1291 51.8473 28.2514 51.0429 29.0745 49.9954C29.8975 48.9479 30.3091 47.732 30.3091 46.3478C30.3091 44.6268 29.8414 43.2426 28.9061 42.1951C27.9708 41.1101 26.7362 40.2309 25.2024 39.5575C23.6685 38.8467 21.9662 38.2107 20.0956 37.6495C18.5618 37.2006 17.1027 36.6955 15.7185 36.1344C14.3342 35.5358 13.0996 34.8249 12.0147 34.0019C10.9298 33.1414 10.088 32.0939 9.48941 30.8593C8.89082 29.6247 8.59153 28.1282 8.59153 26.3699C8.59153 24.3871 9.11529 22.6287 10.1628 21.0948C11.2104 19.5609 12.6881 18.3638 14.5961 17.5033C16.5415 16.6054 18.7862 16.1565 21.3302 16.1565C23.5375 16.1565 25.6513 16.5306 27.6715 17.2788C29.7292 18.0271 31.3566 19.1307 32.5538 20.5898C33.1149 21.1884 33.3955 21.7308 33.3955 22.2172C33.3955 22.5913 33.2085 22.9654 32.8344 23.3395C32.4602 23.7136 32.0487 23.9007 31.5998 23.9007C31.2256 23.9007 30.9076 23.7698 30.6458 23.5079C30.0098 22.7222 29.2054 22.0301 28.2327 21.4315C27.26 20.7955 26.1751 20.3092 24.9779 19.9725C23.8181 19.6358 22.6022 19.4674 21.3302 19.4674C19.5719 19.4674 17.9819 19.748 16.5602 20.3092C15.176 20.8329 14.0724 21.5999 13.2493 22.61C12.4636 23.6201 12.0708 24.836 12.0708 26.2576C12.0708 27.8289 12.5198 29.1196 13.4176 30.1298C14.3155 31.1399 15.494 31.9816 16.9531 32.6551C18.4121 33.2911 19.9647 33.8896 21.6108 34.4508C23.2195 34.8998 24.7534 35.4235 26.2125 36.0221C27.7089 36.5833 29.0184 37.2941 30.1407 38.1546C31.3005 39.0151 32.1984 40.1 32.8344 41.4094C33.5078 42.7188 33.8445 44.3649 33.8445 46.3478C33.8445 48.2558 33.302 49.9767 32.2171 51.5106C31.1321 53.0445 29.6356 54.2604 27.7276 55.1582C25.8571 56.0561 23.6498 56.5238 21.1058 56.5612ZM53.9078 56.5612C51.0271 56.5612 48.4831 55.9439 46.2758 54.7093C44.0685 53.4747 42.3476 51.7538 41.113 49.5465C39.8784 47.3392 39.2611 44.7578 39.2611 41.8022C39.2611 38.6222 39.8784 35.9099 41.113 33.6652C42.385 31.4205 44.0124 29.6995 45.9953 28.5024C48.0155 27.2678 50.148 26.6505 52.3927 26.6505C54.0388 26.6505 55.6288 26.9498 57.1627 27.5484C58.734 28.1095 60.1182 28.97 61.3154 30.1298C62.55 31.2521 63.5227 32.6364 64.2335 34.2825C64.9817 35.9286 65.3933 37.8366 65.4681 40.0065C65.4307 40.4554 65.2436 40.8482 64.9069 41.1849C64.5702 41.4842 64.1774 41.6339 63.7284 41.6339H41.2253L40.5518 38.6035H62.6622L61.9327 39.2769V38.1546C61.783 36.3962 61.2218 34.8998 60.2491 33.6652C59.2764 32.4306 58.098 31.4953 56.7137 30.8593C55.3295 30.2233 53.8891 29.9053 52.3927 29.9053C51.2703 29.9053 50.1105 30.1298 48.9134 30.5787C47.7536 31.0276 46.6874 31.7385 45.7147 32.7112C44.7794 33.6465 44.0124 34.8624 43.4138 36.3588C42.8153 37.8179 42.516 39.5575 42.516 41.5778C42.516 43.7851 42.9649 45.7866 43.8628 47.5824C44.7607 49.3781 46.0514 50.7998 47.7349 51.8473C49.4558 52.8948 51.4948 53.4186 53.8517 53.4186C55.1611 53.4186 56.3396 53.2315 57.3871 52.8574C58.4347 52.4833 59.3513 51.9969 60.1369 51.3984C60.9225 50.7624 61.5773 50.1076 62.101 49.4342C62.5125 49.0975 62.9241 48.9292 63.3356 48.9292C63.7097 48.9292 64.0277 49.0788 64.2896 49.3781C64.5889 49.6774 64.7385 50.0141 64.7385 50.3882C64.7385 50.8372 64.5515 51.23 64.1774 51.5667C63.055 52.9135 61.596 54.092 59.8002 55.1021C58.0044 56.0748 56.0403 56.5612 53.9078 56.5612ZM76.379 54.3165C76.379 54.7654 76.2107 55.1582 75.874 55.4949C75.5372 55.8316 75.1444 56 74.6955 56C74.2091 56 73.7976 55.8316 73.4609 55.4949C73.1616 55.1582 73.012 54.7654 73.012 54.3165V16.1565C73.012 15.7075 73.1803 15.3147 73.517 14.978C73.8537 14.6413 74.2465 14.4729 74.6955 14.4729C75.1818 14.4729 75.5747 14.6413 75.874 14.978C76.2107 15.3147 76.379 15.7075 76.379 16.1565V54.3165ZM95.9904 14.6974C96.5516 14.6974 97.1501 14.7535 97.7861 14.8658C98.4595 14.978 99.0394 15.1838 99.5258 15.4831C100.012 15.7449 100.255 16.1565 100.255 16.7176C100.255 17.1292 100.106 17.5033 99.8064 17.84C99.5071 18.1393 99.1704 18.2889 98.7963 18.2889C98.4221 18.2889 97.9545 18.1954 97.3933 18.0084C96.8321 17.7839 96.2336 17.6716 95.5975 17.6716C94.8119 17.6716 94.1385 17.8587 93.5773 18.2328C93.0161 18.5695 92.5859 19.0746 92.2866 19.748C91.9873 20.384 91.8377 21.1696 91.8377 22.1049V54.3165C91.8377 54.7654 91.6693 55.1582 91.3326 55.4949C91.0333 55.8316 90.6405 56 90.1541 56C89.6678 56 89.2563 55.8316 88.9196 55.4949C88.6203 55.1582 88.4706 54.7654 88.4706 54.3165V22.1049C88.4706 19.7106 89.1627 17.8774 90.547 16.6054C91.9686 15.3334 93.7831 14.6974 95.9904 14.6974ZM98.1228 27.8851C98.5718 27.8851 98.9459 28.0347 99.2452 28.334C99.5445 28.6333 99.6941 29.0074 99.6941 29.4564C99.6941 29.9053 99.5445 30.2794 99.2452 30.5787C98.9459 30.878 98.5718 31.0276 98.1228 31.0276H84.374C83.9625 31.0276 83.5884 30.878 83.2517 30.5787C82.9524 30.242 82.8027 29.8679 82.8027 29.4564C82.8027 28.97 82.9524 28.5959 83.2517 28.334C83.5884 28.0347 83.9625 27.8851 84.374 27.8851H98.1228Z" fill="#C27070"/>
<path d="M134.619 19.2991C135.255 19.6358 135.61 20.1408 135.685 20.8142C135.798 21.4876 135.629 22.1049 135.18 22.6661C134.844 23.1525 134.413 23.4144 133.89 23.4518C133.366 23.4892 132.842 23.3769 132.318 23.1151C131.084 22.3668 129.756 21.7869 128.334 21.3754C126.912 20.9265 125.416 20.702 123.844 20.702C121.637 20.702 119.617 21.0948 117.784 21.8805C115.951 22.6287 114.361 23.6949 113.014 25.0792C111.667 26.4634 110.619 28.1095 109.871 30.0175C109.123 31.9255 108.749 34.0393 108.749 36.3588C108.749 38.828 109.142 41.0353 109.927 42.9807C110.713 44.9261 111.779 46.5909 113.126 47.9752C114.51 49.322 116.1 50.3508 117.896 51.0616C119.729 51.7725 121.712 52.1279 123.844 52.1279C125.378 52.1279 126.856 51.9221 128.278 51.5106C129.699 51.0991 131.046 50.5005 132.318 49.7148C132.842 49.4529 133.366 49.3594 133.89 49.4342C134.413 49.5091 134.862 49.7709 135.236 50.2199C135.685 50.8185 135.854 51.4545 135.741 52.1279C135.629 52.7639 135.274 53.2315 134.675 53.5308C133.74 54.092 132.674 54.6158 131.476 55.1021C130.279 55.5511 129.026 55.9065 127.717 56.1684C126.445 56.4302 125.154 56.5612 123.844 56.5612C121.151 56.5612 118.607 56.0935 116.212 55.1582C113.818 54.2229 111.704 52.8761 109.871 51.1178C108.038 49.3594 106.579 47.2456 105.494 44.7765C104.446 42.2699 103.923 39.464 103.923 36.3588C103.923 33.4407 104.428 30.7658 105.438 28.334C106.448 25.9022 107.851 23.7885 109.647 21.9927C111.48 20.1969 113.594 18.794 115.988 17.7839C118.42 16.7738 121.039 16.2687 123.844 16.2687C125.79 16.2687 127.679 16.5306 129.512 17.0544C131.383 17.5781 133.085 18.3264 134.619 19.2991ZM165.626 26.7066C166.262 26.7066 166.786 26.9311 167.197 27.38C167.646 27.7915 167.87 28.3153 167.87 28.9513V53.6992C167.87 54.3352 167.646 54.8776 167.197 55.3266C166.786 55.7755 166.262 56 165.626 56C164.952 56 164.41 55.7755 163.998 55.3266C163.587 54.8776 163.381 54.3352 163.381 53.6992V48.368L164.447 48.2558C164.447 49.0788 164.167 49.9767 163.606 50.9494C163.044 51.9221 162.277 52.8387 161.305 53.6992C160.332 54.5222 159.172 55.2144 157.825 55.7755C156.516 56.2993 155.094 56.5612 153.561 56.5612C151.016 56.5612 148.734 55.9065 146.714 54.5971C144.694 53.2502 143.085 51.4358 141.888 49.1536C140.728 46.8715 140.148 44.2714 140.148 41.3533C140.148 38.3978 140.728 35.7976 141.888 33.5529C143.085 31.2708 144.694 29.4938 146.714 28.2218C148.734 26.9124 150.979 26.2576 153.448 26.2576C155.057 26.2576 156.553 26.5195 157.938 27.0433C159.322 27.5671 160.519 28.2779 161.529 29.1758C162.577 30.0736 163.381 31.0651 163.942 32.15C164.541 33.2349 164.84 34.3199 164.84 35.4048L163.381 35.0681V28.9513C163.381 28.3153 163.587 27.7915 163.998 27.38C164.41 26.9311 164.952 26.7066 165.626 26.7066ZM154.066 52.4085C155.936 52.4085 157.582 51.9221 159.004 50.9494C160.463 49.9767 161.585 48.6673 162.371 47.0212C163.194 45.3376 163.606 43.4484 163.606 41.3533C163.606 39.2956 163.194 37.4438 162.371 35.7976C161.585 34.1141 160.463 32.8047 159.004 31.8694C157.582 30.8967 155.936 30.4104 154.066 30.4104C152.232 30.4104 150.586 30.878 149.127 31.8133C147.706 32.7486 146.583 34.0393 145.76 35.6854C144.937 37.3315 144.526 39.2208 144.526 41.3533C144.526 43.4484 144.918 45.3376 145.704 47.0212C146.527 48.6673 147.649 49.9767 149.071 50.9494C150.53 51.9221 152.195 52.4085 154.066 52.4085ZM178.435 56C177.799 56 177.257 55.7755 176.808 55.3266C176.396 54.8776 176.19 54.3352 176.19 53.6992V29.2319C176.19 28.5959 176.396 28.0721 176.808 27.6606C177.257 27.2116 177.799 26.9872 178.435 26.9872C179.108 26.9872 179.651 27.2116 180.062 27.6606C180.474 28.0721 180.68 28.5959 180.68 29.2319V36.6394L180.006 35.4609C180.231 34.3012 180.624 33.1788 181.185 32.0939C181.783 30.9715 182.532 29.9801 183.43 29.1196C184.327 28.2218 185.356 27.5296 186.516 27.0433C187.676 26.5195 188.948 26.2576 190.332 26.2576C191.155 26.2576 191.903 26.4634 192.577 26.8749C193.288 27.2491 193.643 27.7915 193.643 28.5024C193.643 29.288 193.437 29.8679 193.026 30.242C192.614 30.6161 192.146 30.8032 191.623 30.8032C191.136 30.8032 190.669 30.7096 190.22 30.5226C189.771 30.2981 189.21 30.1859 188.536 30.1859C187.601 30.1859 186.666 30.4478 185.73 30.9715C184.832 31.4579 183.991 32.1687 183.205 33.104C182.457 34.0393 181.84 35.1055 181.353 36.3027C180.904 37.4625 180.68 38.7158 180.68 40.0626V53.6992C180.68 54.3352 180.455 54.8776 180.006 55.3266C179.595 55.7755 179.071 56 178.435 56ZM210.866 56.5612C207.873 56.5612 205.254 55.9252 203.009 54.6532C200.765 53.3812 199.006 51.6415 197.734 49.4342C196.5 47.1895 195.882 44.6081 195.882 41.69C195.882 38.4352 196.518 35.6667 197.79 33.3846C199.1 31.0651 200.783 29.3067 202.841 28.1095C204.936 26.8749 207.143 26.2576 209.463 26.2576C211.184 26.2576 212.849 26.5756 214.457 27.2116C216.066 27.8476 217.488 28.7829 218.722 30.0175C219.957 31.2147 220.948 32.6738 221.697 34.3947C222.445 36.0782 222.838 37.9675 222.875 40.0626C222.875 40.6612 222.651 41.1662 222.202 41.5778C221.753 41.9893 221.229 42.1951 220.63 42.1951H198.464L197.454 38.3229H219.059L218.161 39.1086V37.874C218.011 36.3401 217.488 35.0307 216.59 33.9458C215.729 32.8234 214.663 31.9629 213.391 31.3644C212.157 30.7658 210.847 30.4665 209.463 30.4665C208.341 30.4665 207.218 30.6722 206.096 31.0838C205.011 31.4579 204.019 32.0939 203.122 32.9918C202.261 33.8522 201.55 34.9746 200.989 36.3588C200.465 37.7431 200.203 39.4079 200.203 41.3533C200.203 43.5232 200.634 45.4312 201.494 47.0773C202.392 48.7234 203.627 50.0328 205.198 51.0055C206.769 51.9408 208.602 52.4085 210.697 52.4085C212.007 52.4085 213.148 52.2401 214.121 51.9034C215.093 51.5667 215.935 51.1552 216.646 50.6688C217.357 50.1451 217.955 49.6213 218.442 49.0975C218.928 48.7608 219.396 48.5925 219.845 48.5925C220.406 48.5925 220.855 48.7795 221.191 49.1536C221.566 49.5278 221.753 49.9767 221.753 50.5005C221.753 51.1365 221.453 51.6976 220.855 52.184C219.807 53.3438 218.386 54.3726 216.59 55.2705C214.794 56.1309 212.886 56.5612 210.866 56.5612Z" fill="black"/>
<path d="M257.054 37.7342C257.279 37.8845 257.411 38.0818 257.448 38.3261C257.486 38.5516 257.43 38.7771 257.279 39.0026C257.148 39.1718 256.979 39.2657 256.772 39.2845C256.565 39.3033 256.368 39.2657 256.18 39.1718C255.466 38.702 254.695 38.3355 253.869 38.0724C253.06 37.8093 252.187 37.6778 251.247 37.6778C250.101 37.6778 249.03 37.8845 248.034 38.2979C247.056 38.6926 246.201 39.2751 245.468 40.0456C244.736 40.7973 244.162 41.6899 243.749 42.7235C243.354 43.757 243.157 44.894 243.157 46.1342C243.157 47.4121 243.364 48.5772 243.777 49.6296C244.191 50.6631 244.764 51.5558 245.497 52.3074C246.248 53.0591 247.113 53.6323 248.09 54.0269C249.067 54.4215 250.12 54.6189 251.247 54.6189C252.168 54.6189 253.032 54.4873 253.84 54.2242C254.667 53.9611 255.438 53.6041 256.152 53.1531C256.34 53.0403 256.537 53.0027 256.744 53.0403C256.969 53.0591 257.148 53.1625 257.279 53.3504C257.448 53.5571 257.505 53.7826 257.448 54.0269C257.411 54.2524 257.289 54.4309 257.082 54.5625C256.612 54.8632 256.058 55.145 255.419 55.4081C254.78 55.6712 254.103 55.8779 253.389 56.0283C252.675 56.1974 251.961 56.282 251.247 56.282C249.894 56.282 248.626 56.0377 247.442 55.5491C246.258 55.0605 245.205 54.3746 244.285 53.4913C243.364 52.5893 242.64 51.5182 242.114 50.2779C241.607 49.0376 241.353 47.6564 241.353 46.1342C241.353 44.6685 241.607 43.3248 242.114 42.1033C242.621 40.8631 243.326 39.7919 244.228 38.8899C245.13 37.9879 246.183 37.2832 247.385 36.7758C248.588 36.2684 249.875 36.0147 251.247 36.0147C252.318 36.0147 253.352 36.165 254.348 36.4657C255.344 36.7664 256.246 37.1892 257.054 37.7342Z" fill="black"/>
<path d="M267.211 41.4832C268.394 41.4832 269.353 41.7369 270.086 42.2443C270.819 42.7517 271.354 43.4376 271.692 44.302C272.05 45.1664 272.228 46.1248 272.228 47.1772V55.1544C272.228 55.3799 272.143 55.5773 271.974 55.7464C271.805 55.9155 271.608 56.0001 271.382 56.0001C271.119 56.0001 270.913 55.9155 270.762 55.7464C270.612 55.5773 270.537 55.3799 270.537 55.1544V47.1772C270.537 46.4067 270.415 45.7114 270.17 45.0913C269.945 44.4711 269.569 43.9825 269.043 43.6255C268.517 43.2497 267.812 43.0617 266.929 43.0617C266.139 43.0617 265.388 43.2497 264.674 43.6255C263.978 43.9825 263.415 44.4711 262.982 45.0913C262.55 45.7114 262.334 46.4067 262.334 47.1772V55.1544C262.334 55.3799 262.249 55.5773 262.08 55.7464C261.911 55.9155 261.714 56.0001 261.488 56.0001C261.225 56.0001 261.019 55.9155 260.868 55.7464C260.718 55.5773 260.643 55.3799 260.643 55.1544V35.9865C260.643 35.761 260.718 35.5637 260.868 35.3946C261.037 35.2254 261.244 35.1409 261.488 35.1409C261.733 35.1409 261.93 35.2254 262.08 35.3946C262.249 35.5637 262.334 35.761 262.334 35.9865V45.1195L261.686 46.106C261.723 45.5235 261.902 44.9597 262.221 44.4148C262.56 43.851 262.992 43.353 263.518 42.9208C264.044 42.4698 264.627 42.1221 265.266 41.8778C265.905 41.6147 266.553 41.4832 267.211 41.4832Z" fill="black"/>
<path d="M278.299 55.1544C278.299 55.3799 278.214 55.5773 278.045 55.7464C277.876 55.9155 277.678 56.0001 277.453 56.0001C277.209 56.0001 277.002 55.9155 276.833 55.7464C276.683 55.5773 276.607 55.3799 276.607 55.1544V42.1879C276.607 41.9624 276.683 41.7651 276.833 41.5959C277.002 41.4268 277.209 41.3423 277.453 41.3423C277.697 41.3423 277.895 41.4268 278.045 41.5959C278.214 41.7651 278.299 41.9624 278.299 42.1879V55.1544ZM277.453 39.4537C277.058 39.4537 276.758 39.3691 276.551 39.2C276.363 39.012 276.269 38.7489 276.269 38.4107V38.1288C276.269 37.7906 276.372 37.5369 276.579 37.3677C276.805 37.1798 277.105 37.0859 277.481 37.0859C277.838 37.0859 278.111 37.1798 278.299 37.3677C278.505 37.5369 278.609 37.7906 278.609 38.1288V38.4107C278.609 38.7489 278.505 39.012 278.299 39.2C278.111 39.3691 277.829 39.4537 277.453 39.4537Z" fill="black"/>
<path d="M281.875 53.7168C281.724 53.4913 281.649 53.2752 281.649 53.0685C281.668 52.843 281.79 52.6645 282.016 52.5329C282.166 52.4014 282.335 52.345 282.523 52.3638C282.73 52.3826 282.918 52.4766 283.087 52.6457C283.594 53.3034 284.205 53.839 284.919 54.2524C285.652 54.6471 286.516 54.8444 287.512 54.8444C288.039 54.8444 288.555 54.7598 289.063 54.5907C289.589 54.4028 290.021 54.1303 290.359 53.7732C290.698 53.3974 290.867 52.9276 290.867 52.3638C290.867 51.7813 290.698 51.3115 290.359 50.9544C290.021 50.5974 289.58 50.3155 289.035 50.1088C288.508 49.9021 287.945 49.7235 287.343 49.5732C286.704 49.4041 286.084 49.2161 285.483 49.0094C284.882 48.7839 284.346 48.5114 283.876 48.192C283.425 47.8537 283.059 47.4497 282.777 46.9799C282.495 46.5101 282.354 45.9369 282.354 45.2604C282.354 44.4711 282.57 43.7758 283.002 43.1745C283.435 42.5731 284.017 42.1033 284.75 41.7651C285.502 41.4268 286.347 41.2577 287.287 41.2577C287.757 41.2577 288.264 41.3235 288.809 41.455C289.354 41.5678 289.89 41.7651 290.416 42.047C290.942 42.3288 291.412 42.7141 291.825 43.2027C291.994 43.3718 292.079 43.5691 292.079 43.7946C292.079 44.0013 291.985 44.1893 291.797 44.3584C291.647 44.4711 291.468 44.5275 291.261 44.5275C291.074 44.5275 290.914 44.4523 290.782 44.302C290.331 43.7946 289.796 43.4094 289.176 43.1463C288.555 42.8832 287.888 42.7517 287.174 42.7517C286.629 42.7517 286.112 42.8456 285.624 43.0335C285.154 43.2027 284.759 43.4658 284.44 43.8228C284.12 44.1799 283.961 44.6497 283.961 45.2322C283.998 45.7772 284.186 46.2188 284.524 46.5571C284.882 46.8953 285.342 47.1772 285.906 47.4027C286.488 47.6282 287.137 47.8349 287.851 48.0228C288.452 48.1732 289.025 48.3517 289.57 48.5584C290.134 48.7651 290.622 49.0282 291.036 49.3477C291.468 49.6484 291.806 50.0336 292.051 50.5034C292.314 50.9732 292.445 51.5651 292.445 52.2792C292.445 53.1061 292.21 53.8202 291.741 54.4215C291.29 55.0229 290.679 55.4833 289.908 55.8028C289.138 56.1222 288.283 56.282 287.343 56.282C286.329 56.282 285.342 56.0846 284.384 55.69C283.444 55.2954 282.608 54.6377 281.875 53.7168ZM288.64 58.9598C288.64 59.4672 288.49 59.9558 288.189 60.4256C287.888 60.9142 287.522 61.3088 287.09 61.6095C286.657 61.929 286.235 62.0887 285.821 62.0887C285.671 62.0887 285.52 62.0417 285.37 61.9478C285.239 61.8538 285.173 61.6753 285.173 61.4122C285.173 61.1491 285.257 60.9988 285.426 60.9612C285.614 60.9424 285.84 60.8578 286.103 60.7075C286.422 60.5572 286.667 60.3692 286.836 60.1437C287.005 59.9182 287.09 59.6551 287.09 59.3545C287.09 59.1102 287.014 58.9223 286.864 58.7907C286.733 58.6592 286.573 58.5934 286.385 58.5934C286.253 58.5934 286.122 58.6122 285.99 58.6498C285.859 58.6874 285.737 58.7437 285.624 58.8189C285.53 58.7249 285.445 58.6216 285.37 58.5088C285.295 58.3961 285.267 58.2551 285.286 58.086C285.323 57.7665 285.492 57.4847 285.793 57.2404C286.112 57.0149 286.479 56.9021 286.892 56.9021C287.4 56.9021 287.813 57.1088 288.133 57.5222C288.471 57.9357 288.64 58.4149 288.64 58.9598Z" fill="black"/>
<path d="M297.54 55.1544C297.54 55.3799 297.456 55.5773 297.287 55.7464C297.118 55.9155 296.92 56.0001 296.695 56.0001C296.45 56.0001 296.244 55.9155 296.075 55.7464C295.924 55.5773 295.849 55.3799 295.849 55.1544V42.1879C295.849 41.9624 295.924 41.7651 296.075 41.5959C296.244 41.4268 296.45 41.3423 296.695 41.3423C296.939 41.3423 297.136 41.4268 297.287 41.5959C297.456 41.7651 297.54 41.9624 297.54 42.1879V55.1544ZM296.695 39.4537C296.3 39.4537 295.999 39.3691 295.793 39.2C295.605 39.012 295.511 38.7489 295.511 38.4107V38.1288C295.511 37.7906 295.614 37.5369 295.821 37.3677C296.046 37.1798 296.347 37.0859 296.723 37.0859C297.08 37.0859 297.352 37.1798 297.54 37.3677C297.747 37.5369 297.85 37.7906 297.85 38.1288V38.4107C297.85 38.7489 297.747 39.012 297.54 39.2C297.352 39.3691 297.071 39.4537 296.695 39.4537Z" fill="black"/>
<path d="M308.727 41.2577C309.968 41.2577 310.954 41.5114 311.687 42.0188C312.439 42.5074 312.974 43.1839 313.294 44.0483C313.632 44.894 313.801 45.8336 313.801 46.8671V55.1544C313.801 55.3799 313.717 55.5773 313.547 55.7464C313.378 55.9155 313.181 56.0001 312.955 56.0001C312.692 56.0001 312.486 55.9155 312.335 55.7464C312.185 55.5773 312.11 55.3799 312.11 55.1544V46.9517C312.11 46.2 311.988 45.5141 311.743 44.894C311.499 44.2738 311.095 43.7758 310.531 43.4C309.986 43.0241 309.263 42.8362 308.361 42.8362C307.553 42.8362 306.782 43.0241 306.049 43.4C305.335 43.7758 304.753 44.2738 304.302 44.894C303.851 45.5141 303.625 46.2 303.625 46.9517V55.1544C303.625 55.3799 303.541 55.5773 303.372 55.7464C303.202 55.9155 303.005 56.0001 302.78 56.0001C302.516 56.0001 302.31 55.9155 302.159 55.7464C302.009 55.5773 301.934 55.3799 301.934 55.1544V42.5262C301.934 42.3007 302.009 42.1033 302.159 41.9342C302.329 41.7651 302.535 41.6805 302.78 41.6805C303.024 41.6805 303.221 41.7651 303.372 41.9342C303.541 42.1033 303.625 42.3007 303.625 42.5262V44.894L302.977 45.9087C303.014 45.3074 303.202 44.7342 303.541 44.1893C303.898 43.6255 304.349 43.1275 304.894 42.6953C305.439 42.2443 306.04 41.8966 306.698 41.6523C307.374 41.3892 308.051 41.2577 308.727 41.2577Z" fill="black"/>
<path d="M330.041 41.5959C330.285 41.5959 330.483 41.6805 330.633 41.8496C330.802 42.0188 330.887 42.2255 330.887 42.4698V55.1544C330.887 55.3799 330.802 55.5773 330.633 55.7464C330.464 55.9155 330.267 56.0001 330.041 56.0001C329.797 56.0001 329.59 55.9155 329.421 55.7464C329.271 55.5773 329.195 55.3799 329.195 55.1544V51.8001L329.675 51.5745C329.675 52.1007 329.524 52.6363 329.224 53.1813C328.942 53.7262 328.547 54.2336 328.04 54.7034C327.532 55.1732 326.931 55.5585 326.236 55.8591C325.559 56.141 324.826 56.282 324.037 56.282C322.759 56.282 321.613 55.9531 320.598 55.2954C319.602 54.6377 318.813 53.7356 318.23 52.5893C317.666 51.443 317.385 50.1557 317.385 48.7275C317.385 47.2618 317.676 45.9745 318.258 44.8658C318.841 43.7382 319.63 42.855 320.626 42.2161C321.622 41.5772 322.75 41.2577 324.009 41.2577C324.817 41.2577 325.569 41.3986 326.264 41.6805C326.978 41.9624 327.598 42.3476 328.124 42.8362C328.65 43.3248 329.054 43.8886 329.336 44.5275C329.637 45.1477 329.787 45.796 329.787 46.4725L329.195 46.0497V42.4698C329.195 42.2255 329.271 42.0188 329.421 41.8496C329.59 41.6805 329.797 41.5959 330.041 41.5959ZM324.178 54.7034C325.174 54.7034 326.057 54.4497 326.828 53.9423C327.598 53.4162 328.199 52.7021 328.632 51.8001C329.083 50.8792 329.308 49.8551 329.308 48.7275C329.308 47.6188 329.083 46.6228 328.632 45.7396C328.199 44.8564 327.598 44.1517 326.828 43.6255C326.057 43.0993 325.174 42.8362 324.178 42.8362C323.201 42.8362 322.317 43.0899 321.528 43.5973C320.758 44.1047 320.147 44.8 319.696 45.6832C319.264 46.5665 319.048 47.5812 319.048 48.7275C319.048 49.8551 319.264 50.8792 319.696 51.8001C320.147 52.7021 320.758 53.4162 321.528 53.9423C322.299 54.4497 323.182 54.7034 324.178 54.7034Z" fill="black"/>
<path d="M345.817 41.6805C346.062 41.6805 346.259 41.7651 346.409 41.9342C346.578 42.1033 346.663 42.3007 346.663 42.5262V50.4752C346.663 52.3356 346.137 53.7544 345.084 54.7316C344.032 55.7088 342.613 56.1974 340.828 56.1974C339.062 56.1974 337.652 55.7088 336.6 54.7316C335.566 53.7544 335.049 52.3356 335.049 50.4752V42.5262C335.049 42.3007 335.125 42.1033 335.275 41.9342C335.444 41.7651 335.651 41.6805 335.895 41.6805C336.139 41.6805 336.337 41.7651 336.487 41.9342C336.656 42.1033 336.741 42.3007 336.741 42.5262V50.4752C336.741 51.8282 337.098 52.8618 337.812 53.5759C338.545 54.2712 339.55 54.6189 340.828 54.6189C342.125 54.6189 343.139 54.2712 343.872 53.5759C344.605 52.8618 344.972 51.8282 344.972 50.4752V42.5262C344.972 42.3007 345.047 42.1033 345.197 41.9342C345.348 41.7651 345.554 41.6805 345.817 41.6805Z" fill="black"/>
<path d="M322.374 39.4254C322.919 39.7261 323.511 39.8764 324.15 39.8764C324.807 39.8764 325.399 39.7261 325.926 39.4254C326.452 39.106 326.884 38.6831 327.222 38.157C327.56 37.6308 327.758 37.067 327.814 36.4657C327.871 36.2402 327.833 36.0616 327.701 35.9301C327.57 35.7798 327.401 35.7046 327.194 35.7046C326.969 35.7046 326.79 35.7704 326.658 35.9019C326.546 36.0147 326.442 36.1744 326.348 36.3811C326.217 37.0388 325.944 37.5556 325.531 37.9315C325.136 38.2885 324.676 38.467 324.15 38.467C323.605 38.467 323.126 38.2885 322.712 37.9315C322.318 37.5556 322.064 37.0388 321.951 36.3811C321.876 36.1744 321.773 36.0147 321.641 35.9019C321.509 35.7704 321.322 35.7046 321.077 35.7046C320.871 35.7046 320.701 35.7798 320.57 35.9301C320.457 36.0804 320.42 36.259 320.457 36.4657C320.513 37.067 320.711 37.6308 321.049 38.157C321.406 38.6831 321.848 39.106 322.374 39.4254Z" fill="black"/>
<path d="M288.189 60.4256C288.49 59.9558 288.64 59.4672 288.64 58.9598C288.64 58.4149 288.471 57.9357 288.133 57.5222C287.813 57.1088 287.4 56.9021 286.892 56.9021C286.479 56.9021 286.112 57.0149 285.793 57.2404C285.492 57.4847 285.323 57.7665 285.286 58.086C285.267 58.2551 285.295 58.3961 285.37 58.5088C285.445 58.6216 285.53 58.7249 285.624 58.8189C285.737 58.7437 285.859 58.6874 285.99 58.6498C286.122 58.6122 286.253 58.5934 286.385 58.5934C286.573 58.5934 286.733 58.6592 286.864 58.7907C287.014 58.9223 287.09 59.1102 287.09 59.3545C287.09 59.6551 287.005 59.9182 286.836 60.1437C286.667 60.3692 286.422 60.5572 286.103 60.7075C285.84 60.8578 285.614 60.9424 285.426 60.9612C285.257 60.9988 285.173 61.1491 285.173 61.4122C285.173 61.6753 285.239 61.8538 285.37 61.9478C285.52 62.0417 285.671 62.0887 285.821 62.0887C286.235 62.0887 286.657 61.929 287.09 61.6095C287.522 61.3088 287.888 60.9142 288.189 60.4256Z" fill="black"/>
<path d="M288.189 60.4256C288.49 59.9558 288.64 59.4672 288.64 58.9598C288.64 58.4149 288.471 57.9357 288.133 57.5222C287.813 57.1088 287.4 56.9021 286.892 56.9021C286.479 56.9021 286.112 57.0149 285.793 57.2404C285.492 57.4847 285.323 57.7665 285.286 58.086C285.267 58.2551 285.295 58.3961 285.37 58.5088C285.445 58.6216 285.53 58.7249 285.624 58.8189C285.737 58.7437 285.859 58.6874 285.99 58.6498C286.122 58.6122 286.253 58.5934 286.385 58.5934C286.573 58.5934 286.733 58.6592 286.864 58.7907C287.014 58.9223 287.09 59.1102 287.09 59.3545C287.09 59.6551 287.005 59.9182 286.836 60.1437C286.667 60.3692 286.422 60.5572 286.103 60.7075C285.84 60.8578 285.614 60.9424 285.426 60.9612C285.257 60.9988 285.173 61.1491 285.173 61.4122C285.173 61.6753 285.239 61.8538 285.37 61.9478C285.52 62.0417 285.671 62.0887 285.821 62.0887C286.235 62.0887 286.657 61.929 287.09 61.6095C287.522 61.3088 287.888 60.9142 288.189 60.4256Z" fill="black"/>
<path d="M322.374 39.4254C322.919 39.7261 323.511 39.8764 324.15 39.8764C324.807 39.8764 325.399 39.7261 325.926 39.4254C326.452 39.106 326.884 38.6831 327.222 38.157C327.56 37.6308 327.758 37.067 327.814 36.4657C327.871 36.2402 327.833 36.0616 327.701 35.9301C327.57 35.7798 327.401 35.7046 327.194 35.7046C326.969 35.7046 326.79 35.7704 326.658 35.9019C326.546 36.0147 326.442 36.1744 326.348 36.3811C326.217 37.0388 325.944 37.5556 325.531 37.9315C325.136 38.2885 324.676 38.467 324.15 38.467C323.605 38.467 323.126 38.2885 322.712 37.9315C322.318 37.5556 322.064 37.0388 321.951 36.3811C321.876 36.1744 321.773 36.0147 321.641 35.9019C321.509 35.7704 321.322 35.7046 321.077 35.7046C320.871 35.7046 320.701 35.7798 320.57 35.9301C320.457 36.0804 320.42 36.259 320.457 36.4657C320.513 37.067 320.711 37.6308 321.049 38.157C321.406 38.6831 321.848 39.106 322.374 39.4254Z" fill="#C27070"/>
</svg>
