<?xml version="1.0" encoding="utf-8"?>
<!-- Generator: Adobe Illustrator 27.5.0, SVG Export Plug-In . SVG Version: 6.00 Build 0)  -->
<svg version="1.1" xmlns="http://www.w3.org/2000/svg" xmlns:xlink="http://www.w3.org/1999/xlink" x="0px" y="0px"
	 viewBox="0 0 500 500" style="enable-background:new 0 0 500 500;" xml:space="preserve">
<g id="BACKGROUND">
	<rect style="fill:#F5E9D8;" width="500" height="500"/>
</g>
<g id="OBJECTS">
	<path style="fill:#FFD2B3;" d="M443.82,254.71c-0.17,1.77-0.29,3.54-0.38,5.31c-3.36,62.75-58.65,106.31-120.09,83.03
		c-34.37-11.91-54.67-44.96-86.06-61.72c-46.16-27.18-106.29,5.54-136.15-38.37c-23.87-35.38-9.23-80.99,10.41-114.94
		c16.39-29.33,40.43-56.81,69.07-76.83c58.13-40.65,136.27-35.65,188.84,11.97C421.41,110.21,450.27,186.08,443.82,254.71z"/>
	<g>
		<g>
			<path style="fill:#8B966C;" d="M370.547,460.899c-4.032,3.94-8.099,7.944-11.106,12.711c-2.202,3.479-3.793,7.455-4.177,11.53
				c-5.645-11.871-9.889-24.471-11.609-37.49c-1.812-13.864-0.662-28.245,4.507-41.241c2.847-7.11,6.851-13.77,9.173-21.079
				c1.876-5.869,2.631-12.028,3.596-18.104c2.123-13.224,5.412-26.345,11.125-38.454c5.694-12.086,13.91-23.189,24.716-31.08
				c-2.692,7.259-2.409,15.341-0.789,22.903c1.622,7.582,4.554,14.808,7.109,22.128c7.881,22.611,12.268,47.836,4.009,70.34
				C400.127,432.066,385.047,446.782,370.547,460.899z"/>
			<path style="fill:#A0A984;" d="M496.256,388.073c-9.701,4.238-16.814,12.886-22,22.116c-5.186,9.23-8.811,19.262-13.852,28.582
				c-9.274,17.183-23.835,31.995-42.101,38.934c-11.466,4.363-23.852,5.469-35.961,7.483c-11.463,1.886-23.153,4.779-32.555,11.509
				c-0.607-5.75,0.596-11.544,2.006-17.163c2.911-11.756,6.897-23.776,15.344-32.465c8.37-8.591,20.097-12.916,29.831-19.928
				c15.342-11.051,25.625-28.754,42.571-37.124C456.823,381.468,477.35,384.383,496.256,388.073z"/>
			<path style="fill:#A0A984;" d="M355.115,478.699c-5.574-30.53,1.455-37.516,17.202-61.727c3.817-6.192,6.78-12.94,7.395-20.083
				c1.051-10.82-2.352-22.047-1.09-33.059c1.243-11.034,6.81-21.212,6.948-32.324c0.417-7.172-0.149-15.357,4.694-21.276
				c-4.413,6.228-3.501,14.079-3.584,21.31c0.132,11.149-4.94,21.568-6.11,32.499c-1.123,11.077,2.385,21.779,1.396,33.061
				c-0.724,7.607-3.95,14.686-7.892,20.945C357.888,442.6,351.349,447.469,355.115,478.699L355.115,478.699z"/>
			<path style="fill:#BCC4A7;" d="M476.801,382.707c0.01,1.52-0.25,3.04-0.75,4.48c-0.36,1-0.83,1.95-1.37,2.87
				c-3.62,6.25-9.82,10.61-16.53,13.35c-0.19,0.16-0.39,0.31-0.58,0.47c-8.19,6.54-18,10.34-27.67,14.15c0,0.01,0,0.01,0,0.01
				c-0.13,0.26-0.37,0.3-0.58,0.23c-0.98,0.38-1.96,0.77-2.93,1.16c-5.74,2.3-11.35,4.83-16.72,7.92
				c-5.21,2.99-10.18,6.42-14.84,10.22c-0.03,0.02-0.05,0.03-0.08,0.05c-2.65,3.34-5.62,6.43-8.83,9.24
				c-4.02,3.54-8.37,6.7-12.87,9.6c-4.9,3.14-10.02,5.91-15.03,8.86c-9.66,5.67-19.47,12.61-23.91,23.32
				c-0.25,0.59-1.13,0.12-0.89-0.47c0.51-1.23,1.1-2.43,1.76-3.59c5.73-10.08,15.9-16.35,25.69-21.95
				c9.62-5.5,19.16-11.17,27.19-18.9c2.24-2.15,4.33-4.45,6.25-6.88c0.91-5.58,0.09-11.23-1.32-16.66
				c-0.99-3.79-2.25-7.51-3.47-11.23c-0.01-0.02-0.02-0.02-0.03-0.04c-1.44-2.42-3.72-4.1-6.09-5.55c-2.12-1.29-4.34-2.44-6.36-3.89
				c-0.47-0.34-0.94-0.7-1.39-1.08c-0.98-0.79-1.9-1.66-2.77-2.58c-3.66-3.3-6.9-7.07-8.98-11.51c-2.53-5.4-3.14-11.91-0.59-17.29
				c0.29-0.61,0.63-1.23,1.18-1.63c0.54-0.4,1.34-0.53,1.9-0.15c0.29,0.21,0.49,0.53,0.66,0.84c0.9,1.67,1.37,3.54,1.79,5.39
				c1.74,7.77,2.61,15.78,5.38,23.24c0.22,0.58,0.45,1.17,0.71,1.73c1.28,1.2,2.67,2.28,4.17,3.22c3.22,2.03,6.89,3.72,9.51,6.51
				c-0.05-0.17-0.11-0.34-0.16-0.51c-1.51-4.77-2.88-9.6-3.81-14.52c-0.51-2.73-0.89-5.51-1.07-8.29c-0.11-1.58-0.15-3.17-0.12-4.75
				c-0.44-3.87-0.63-7.78-0.1-11.63c0.69-4.99,2.7-9.95,6.38-13.39c0.95-0.89,2.21-1.71,3.45-1.34c1.18,0.35,1.81,1.63,2.09,2.83
				c0.89,3.9-0.51,7.95-2.12,11.61c-2.38,5.42-5.28,10.6-8.66,15.46c0.43,9.15,3.05,18.03,5.87,26.69c2.83,8.66,6.1,17.69,5.17,26.9
				c0.92-1.26,1.79-2.55,2.6-3.88c2.96-4.91,4.98-10.27,6.42-15.8c2.98-11.41,3.83-23.27,7.42-34.53c0.05-0.18,0.12-0.35,0.17-0.52
				c-0.03-0.05-0.06-0.12-0.08-0.2c-0.43-2.6-1.59-4.97-2.64-7.36c-1.02-2.32-1.85-4.71-2.49-7.14c-0.12-0.46-0.23-0.91-0.33-1.37
				l-0.02,0.01c-2.37-4.54-4.24-9.41-4.75-14.51c-0.51-5.09,0.41-10.44,3.25-14.7c0.65-0.98,1.43-1.92,2.47-2.46
				c1.05-0.53,2.42-0.58,3.34,0.15c0.71,0.57,1.05,1.5,1.23,2.4c0.3,1.43,0.32,2.9,0.26,4.37c-0.2,4.65-1.18,9.24-2.23,13.78
				c-0.83,3.57-1.69,7.13-2.6,10.68v0.01c0.23,1.04,0.51,2.08,0.82,3.11c0.67,2.23,1.55,4.37,2.5,6.5c0.73,1.63,1.43,3.27,1.87,5
				c0.32-0.94,0.68-1.86,1.03-2.78c-0.08-0.2-0.05-0.43,0.19-0.57c0.01,0,0.02-0.01,0.02-0.01c1.29-3.31,2.76-6.55,4.41-9.69
				c0.72-1.37,1.47-2.73,2.26-4.06c1.7-4.26,3.6-8.45,6.05-12.31c3.21-5.05,7.45-9.58,12.77-12.3c0.82-0.42,1.68-0.8,2.59-0.88
				c0.92-0.09,1.9,0.17,2.51,0.86c0.88,0.98,0.75,2.5,0.39,3.78c-0.65,2.36-1.85,4.5-3.34,6.44c-0.49,0.65-1.03,1.28-1.58,1.89
				c-0.32,0.34-0.65,0.68-0.98,1.02c-0.89,0.9-1.82,1.74-2.77,2.55c-5.15,4.36-10.96,7.88-16.27,12.05c-0.18,0.33-0.36,0.66-0.53,1
				c-1.56,2.91-2.95,5.91-4.19,8.98c0.83-0.38,1.68-0.7,2.53-1.02c1.38-0.52,2.77-1.04,4.15-1.57c3.36-1.29,6.8-2.72,10.05-4.46
				c0.01,0,0.02-0.01,0.02-0.01c2.82-2.43,4.94-5.54,7.06-8.67c0.33-0.64,0.67-1.28,1.02-1.91c0.98-1.76,2.09-3.46,3.31-5.08
				c0.32-0.42,0.65-0.84,0.99-1.25c0.19-0.23,0.38-0.45,0.57-0.67c0.59-0.66,1.21-1.28,1.86-1.87c1.9-1.71,4.1-3.04,6.6-3.5
				c0.97-0.18,2.03-0.21,2.91,0.24c1.26,0.66,1.87,2.2,1.78,3.61c-0.08,1.42-0.74,2.74-1.48,3.96c-2,3.31-4.66,6.21-7.77,8.49
				c-0.23,0.17-0.45,0.33-0.68,0.48c-0.23,0.16-0.46,0.31-0.69,0.46c-3.94,2.55-8.4,4.1-12.92,5.42c-1.69,1.02-3.44,1.93-5.22,2.75
				c-2.44,1.13-4.94,2.13-7.45,3.09c-1.27,0.49-2.55,0.97-3.83,1.45c-1.14,0.43-2.28,0.85-3.35,1.44c-1.24,3.24-2.33,6.54-3.2,9.9
				c-2.97,11.42-3.73,23.36-7.46,34.59c-1.66,5-3.96,9.72-6.94,14.05c4.42-3.39,9.08-6.47,13.96-9.16
				c5.31-2.92,10.86-5.31,16.49-7.55c0.58-0.23,1.16-0.46,1.74-0.69c1.35-2.84,2.27-5.84,3.12-8.86c1.52-5.38,3.22-10.64,5.65-15.69
				c1.48-3.09,3.18-6.08,5.06-8.94c0,0,0.01,0,0.01-0.01c1.3-4.81,2.68-9.63,4.95-14.04c1.19-2.31,2.7-4.56,4.7-6.15
				c0.23-0.19,0.47-0.36,0.71-0.53c0.24-0.17,0.48-0.32,0.74-0.47c0.39-0.23,0.8-0.43,1.22-0.6c1.19-0.49,2.62-0.71,3.73-0.04
				c0.97,0.59,1.47,1.78,1.48,2.92c0.02,1.14-0.38,2.25-0.87,3.28c-1.01,2.17-2.41,4.14-3.93,5.99c-3.42,4.15-7.54,7.73-12.13,10.54
				c0,0.01,0,0.01-0.01,0.01c-0.53,0.82-1.05,1.65-1.55,2.49c-2.81,4.72-5.12,9.75-6.86,14.96c-1.62,4.85-2.63,9.92-4.68,14.61
				c4.79-1.88,9.59-3.78,14.22-6.05c4.5-2.2,8.91-4.84,12.82-8.06c4.8-6.76,6.06-15.8,11.69-21.92c0.78-0.86,1.67-1.66,2.74-2.08
				c1.08-0.43,2.38-0.43,3.33,0.24C476.461,379.687,476.791,381.277,476.801,382.707z"/>
		</g>
		<g>
			<path style="fill:#8B966C;" d="M158.522,458.168c4.032,3.94,8.099,7.944,11.106,12.711c2.202,3.479,3.793,7.455,4.177,11.53
				c5.645-11.871,9.889-24.471,11.609-37.49c1.812-13.864,0.662-28.245-4.507-41.241c-2.847-7.11-6.85-13.77-9.173-21.079
				c-1.876-5.869-2.631-12.028-3.596-18.104c-2.123-13.224-5.412-26.345-11.125-38.454c-5.694-12.086-13.91-23.189-24.716-31.08
				c2.692,7.259,2.409,15.341,0.789,22.903c-1.622,7.582-4.554,14.808-7.109,22.128c-7.881,22.611-12.268,47.836-4.009,70.34
				C128.941,429.335,144.021,444.05,158.522,458.168z"/>
			<path style="fill:#A0A984;" d="M18.639,416.75c10.326,2.331,18.943,9.482,25.778,17.567c6.834,8.085,12.287,17.253,18.997,25.455
				c12.35,15.124,29.444,26.923,48.691,30.29c12.083,2.121,24.455,0.871,36.727,0.563c11.613-0.311,23.639,0.325,34.142,5.159
				c-0.489-5.761-2.764-11.224-5.209-16.476c-5.077-10.995-11.259-22.048-21.194-28.986c-9.841-6.858-22.173-8.892-33.055-13.941
				c-17.152-7.958-30.59-23.403-48.811-28.425C56.117,402.823,36.509,409.559,18.639,416.75z"/>
			<path style="fill:#A0A984;" d="M173.954,475.968c5.574-30.53-1.455-37.516-17.202-61.727c-3.817-6.192-6.78-12.94-7.395-20.083
				c-1.051-10.82,2.352-22.047,1.09-33.059c-1.243-11.034-6.81-21.212-6.948-32.324c-0.417-7.172,0.149-15.357-4.694-21.276
				c4.413,6.228,3.501,14.079,3.584,21.31c-0.132,11.149,4.94,21.568,6.11,32.499c1.123,11.077-2.385,21.779-1.396,33.061
				c0.724,7.607,3.95,14.686,7.892,20.945C171.181,439.869,177.72,444.738,173.954,475.968L173.954,475.968z"/>
			<g>
				<path style="fill:#BCC4A7;" d="M155.01,459.57c-8.32,0.04-15.63,5.62-23.41,8.8c-18.69,7.65-40.72,1.47-59.69,8.42
					c8.02-13.02,23.01-20.64,38.17-22.62C125.15,452.19,140.46,455.18,155.01,459.57z"/>
				<path style="fill:#BCC4A7;" d="M78.38,437.55c-10.44-4.76-19.68-12.86-31.05-14.41c12.09-7.81,27.53-9.34,41.58-6.24
					c14.02,3.09,26.8,10.44,38.14,19.25C112.18,443.99,93.67,444.52,78.38,437.55z"/>
				<path style="fill:#BCC4A7;" d="M127.46,434.38c0.1,0.38,0.19,0.77,0.29,1.15c-0.1,0.11-0.2,0.22-0.3,0.33
					c-1.49-1.61-2.93-3.25-4.34-4.92c-6.53-7.77-12.28-16.19-17.11-25.12c-0.19-0.35-0.38-0.71-0.56-1.06
					c0.17-0.04,0.34-0.09,0.51-0.15c-0.43-0.2-0.78-0.65-1.07-1.05c-0.08-0.12-0.17-0.23-0.25-0.35c-3.83-7.42-7.05-15.15-9.62-23.1
					c-6.9-12.79-16.15-24.62-19.08-38.8c-1.78-8.57-1.1-17.51,0.94-26.02c2.05-8.51,5.43-16.64,9.07-24.6
					c-0.95,9.26,1.22,18.55,3.99,27.43s6.17,17.61,7.81,26.77c2.2,12.3,1.13,24.98-0.98,37.31c2.52,7.39,5.6,14.57,9.23,21.48
					l0.76-0.11c-3.91-11.71-3.84-24.72,0.21-36.39c2.22-6.41,5.57-12.36,9.09-18.15c3.91-6.41,8.05-12.67,12.42-18.76
					c-0.21,4.85-0.42,9.7-0.62,14.56c-0.46,10.79-0.94,21.67-3.69,32.11c-0.69,2.61-1.54,5.2-2.55,7.72
					c-3.04,7.56-7.58,14.49-13.94,19.5c-0.34,0.26-0.71,0.53-1.12,0.56c0.73,1.38,1.49,2.74,2.27,4.1
					c5,8.67,10.88,16.84,17.52,24.33C126.7,433.56,127.07,433.97,127.46,434.38z"/>
				<path style="fill:#BCC4A7;" d="M128.13,435.13c-0.23-0.25-0.46-0.5-0.67-0.75c-3.24-12.61-6.22-25.64-3.88-38.41
					c0.59-3.23,1.52-6.38,2.68-9.45c0-0.01,0.01-0.02,0.01-0.03c1.93-5.11,4.5-10,7.25-14.72c4.03-6.92,8.48-13.58,13.33-19.95
					c-4.36,11.06-3.59,23.36-3.12,35.24c0.28,6.95,0.38,14.12-0.72,20.97c-0.78,4.83-2.16,9.51-4.51,13.84
					C135.82,426.82,132,431.03,128.13,435.13z"/>
				<path style="fill:#BCC4A7;" d="M172.19,469.42c-1.1-0.54-2.2-1.1-3.28-1.67c-4.69-2.45-9.24-5.15-13.64-8.1
					c0.01-0.03,0.02-0.05,0.02-0.08h-0.16c-3.74-2.49-7.38-5.15-10.89-7.97c-5.77-4.64-11.21-9.7-16.24-15.14
					c-0.09-0.31-0.17-0.62-0.25-0.93c0.13-0.13,0.26-0.27,0.38-0.4c5.99,6.54,12.57,12.55,19.62,17.95c2.38,1.82,4.81,3.57,7.3,5.23
					c-1.74-2.91-3.18-5.99-4.41-9.14c-4.99-12.79-6.13-26.94-3.73-40.45c2.21-12.46,7.43-24.39,15.43-34.22
					c-3.55,10.23-1.95,21.45-0.05,32.1c0.72,4.03,1.48,8.09,1.43,12.19c-0.03,2.83-0.45,5.64-0.91,8.43
					c-1.77,10.61-4.19,21.12-7.25,31.44c5.47,3.67,11.19,6.96,17.1,9.87C173.24,468.82,172.77,469.7,172.19,469.42z"/>
				<path style="fill:#BCC4A7;" d="M104.63,403.21c0.26,0.52,0.53,1.04,0.81,1.55c-8.88,2.6-18.67,1.06-27.03-2.97
					c-8.63-4.15-15.87-10.77-22.11-18.04c-6.23-7.27-11.57-15.25-17.34-22.9C65.48,364.61,89.08,381.4,104.63,403.21z"/>
				<path style="fill:#BCC4A7;" d="M105.95,404.61c-0.17,0.06-0.34,0.11-0.51,0.15c-0.28-0.51-0.55-1.03-0.81-1.55
					c0.08,0.12,0.17,0.23,0.25,0.35C105.17,403.96,105.52,404.41,105.95,404.61z"/>
				<path style="fill:#BCC4A7;" d="M128.13,435.13c-0.12,0.13-0.25,0.27-0.38,0.4c-0.1-0.38-0.19-0.77-0.29-1.15
					C127.67,434.63,127.9,434.88,128.13,435.13z"/>
				<path style="fill:#BCC4A7;" d="M127.45,435.86c0.1-0.11,0.2-0.22,0.3-0.33c0.08,0.31,0.16,0.62,0.25,0.93
					C127.8,436.26,127.62,436.06,127.45,435.86z"/>
				<path style="fill:#BCC4A7;" d="M155.29,459.57c0,0.03-0.01,0.05-0.02,0.08c-0.01,0-0.01,0-0.02-0.01
					c-0.02-0.01-0.05-0.01-0.07-0.02c-0.01-0.02-0.02-0.03-0.04-0.05H155.29z"/>
				<path style="fill:#BCC4A7;" d="M96.88,383.74c-0.11-0.23-0.23-0.46-0.35-0.69"/>
				<path style="fill:#BCC4A7;" d="M106.31,404.5c-0.12,0.04-0.24,0.08-0.36,0.11"/>
				<path style="fill:#BCC4A7;" d="M128.01,436.52c-0.01-0.02-0.01-0.04-0.01-0.06"/>
				<path style="fill:#BCC4A7;" d="M127.45,435.86c-0.07,0.06-0.12,0.12-0.18,0.18c-0.05,0.05-0.1,0.11-0.15,0.16
					c-0.02-0.02-0.05-0.04-0.07-0.05c0.07-0.03,0.15-0.07,0.22-0.11c0.01-0.01,0.03-0.01,0.04-0.02"/>
				<path style="fill:#BCC4A7;" d="M155.16,458.51c-0.04-0.07-0.08-0.13-0.11-0.2"/>
				<path style="fill:#BCC4A7;" d="M155.27,459.65c-0.01,0-0.01,0-0.02-0.01c-0.02-0.01-0.05-0.01-0.07-0.02
					c-0.05-0.01-0.1-0.02-0.15-0.05"/>
				<path style="fill:#BCC4A7;" d="M155.01,459.57c0.01,0,0.01,0,0.02,0c0.03,0,0.07,0,0.1,0"/>
				<path style="fill:#BCC4A7;" d="M155.93,459.59c-0.22-0.01-0.43-0.02-0.64-0.02"/>
			</g>
		</g>
	</g>
	<g>
		<path style="fill:#F2B999;" d="M479.835,125.581h-159.52l-0.51-0.1c2.65-13.06,5.66-26.5,13.71-37.08
			c4.29-5.64,10.87-10.55,17.87-9.49c5.17,0.79,9.82,4.73,15,4.03c4.01-0.55,7.09-3.75,9.51-6.99c4.04-5.38,7.33-11.49,12.58-15.7
			c5.25-4.21,13.41-5.91,18.55-1.56c2.97,2.51,4.28,6.43,5.46,10.15c0.98,3.08,1.95,6.16,2.93,9.24c0.87,2.76,1.89,5.72,4.26,7.37
			c3.13,2.2,7.42,1.32,11.04,0.09c3.63-1.23,7.53-2.75,11.16-1.56c3.6,1.18,5.91,4.76,6.98,8.39c1.08,3.64,1.19,7.48,2.03,11.17
			c0.5,2.22,1.33,4.49,3.06,5.98c5.08,4.39,13.34-0.75,19.56,1.79c3.56,1.46,5.71,5.25,6.27,9.05
			C480.035,122.091,480.015,123.831,479.835,125.581z"/>
		<path style="fill:#F2B999;" d="M256.505,218.841H13.289l-0.778-0.152c4.04-19.912,8.63-40.404,20.903-56.535
			c6.541-8.599,16.573-16.085,27.246-14.469c7.883,1.204,14.972,7.212,22.87,6.144c6.114-0.839,10.81-5.718,14.5-10.657
			c6.16-8.203,11.176-17.519,19.18-23.937c8.005-6.419,20.446-9.011,28.283-2.378c4.528,3.827,6.526,9.804,8.325,15.475
			c1.494,4.696,2.973,9.392,4.467,14.088c1.326,4.208,2.882,8.721,6.495,11.237c4.772,3.354,11.313,2.013,16.832,0.137
			c5.535-1.875,11.481-4.193,17.015-2.378c5.489,1.799,9.011,7.257,10.642,12.792c1.646,5.55,1.814,11.405,3.095,17.031
			c0.762,3.385,2.028,6.846,4.665,9.118c7.745,6.693,20.339-1.144,29.823,2.729c5.428,2.226,8.706,8.005,9.56,13.798
			C256.81,213.52,256.78,216.173,256.505,218.841z"/>
	</g>
	<g>
		<path style="fill:#F5E9D8;" d="M116.768,97.322c0,7.64-6.25,13.9-13.9,13.9h-44.24c-7.65,0-13.9-6.26-13.9-13.9
			c0-3.82,1.56-7.3,4.08-9.82c2.52-2.52,6-4.08,9.82-4.08h44.24C110.518,83.422,116.768,89.672,116.768,97.322z"/>
		<path style="fill:#E29590;" d="M103.288,108.646H57.945c-6.228,0-11.324-5.096-11.324-11.324v0
			c0-6.228,5.096-11.324,11.324-11.324h45.342c6.228,0,11.324,5.096,11.324,11.324v0
			C114.612,103.55,109.516,108.646,103.288,108.646z"/>
		<circle style="fill:#F5E9D8;" cx="57.748" cy="97.322" r="9.786"/>
	</g>
	<g>
		<g>
			<path style="fill:#C6B3A1;" d="M127.24,212.37H89.12c-1.61,0-3.02-1.1-3.4-2.67l-20.91-84.64c-0.54-2.17,1.06-4.28,3.29-4.35
				l40.18-1.26c1.68-0.05,3.17,1.1,3.53,2.75l18.85,85.91C131.14,210.3,129.48,212.37,127.24,212.37z"/>
			<path style="fill:#AD9582;" d="M119.897,180.691c-4.832-18.913-8.933-38-12.801-57.129c0,0,1.028,0.768,1.028,0.768
				c-10.279,0.8-20.598,1.154-30.906,0.947c-3.435-0.083-6.868-0.171-10.297-0.388c5.136-0.186,15.426-0.688,20.553-0.984
				c7.122-0.402,14.233-0.958,21.338-1.575c0,0,0.179,0.84,0.179,0.84C113.027,142.265,116.832,161.413,119.897,180.691
				L119.897,180.691z"/>
			<path style="fill:#AD9582;" d="M86.11,136.89H71.97c-0.9,0-1.68-0.61-1.9-1.48l-1.64-6.67c-0.3-1.23,0.63-2.41,1.89-2.42
				l14.67-0.05c0.95-0.01,1.77,0.68,1.93,1.62l1.12,6.73C88.23,135.81,87.32,136.89,86.11,136.89z"/>
			
				<ellipse transform="matrix(0.9918 -0.1281 0.1281 0.9918 -16.2347 10.5281)" style="fill:#F5E9D8;" cx="73.728" cy="131.473" rx="2.178" ry="3.243"/>
		</g>
		<path style="fill:#D8996F;" d="M363.48,354.33c0.63,8.26,2,16.49,1.85,24.77c-0.15,8.29-1.97,16.85-7.04,23.4
			c-3.01,3.9-7,6.88-11.17,9.57c-0.58-5.9-0.85-11.87-2.27-17.63c-1.4-5.67-4.11-11.26-8.61-14.93c1.91-4.48,4.27-8.76,6.3-13.19
			c12.78-27.78,12.52-61.23-0.7-88.8c-2.27-4.72-4.88-9.27-7.5-13.81c-4.36-7.57-8.72-15.15-13.08-22.72
			c-7.14-12.4-14.53-26.2-12.24-40.22c1.18,0.13,2.37,0.23,3.55,0.31c8.18,0.54,16.43,0.14,24.56,1.25c2.69,0.37,5.38,0.9,7.89,1.94
			c3.84,1.57,7.15,4.25,9.97,7.3c3.59,3.86,6.47,8.39,8.47,13.25c0.01,0.01,0.02,0.01,0.02,0.03c0.01,0.01,0.02,0.03,0.03,0.05v0.01
			c3.91,6.57,5.23,14.48,5.8,22.16C371.96,282.84,360.76,318.56,363.48,354.33z"/>
		<g>
			<path style="fill:#BCC4A7;" d="M363.57,500h-207.1c4.46-18.55,5.61-37.97,9.28-56.79c3.21-16.53,8.41-32.68,15.43-48
				c1.95-4.25,4.07-8.54,4.66-13.19c0.39-3.15,0.06-6.35-0.27-9.52c-0.37-3.59-0.75-7.19-1.13-10.78v-0.01
				c1.75-6.09,2.76-12.43,3.76-18.71c1.36-8.59,2.72-17.19,4.08-25.79c10.31-5.29,17.98-15.12,21.88-26.06
				c4.08-11.41,4.33-23.93,2.31-35.87c-1.08-6.37-2.79-12.63-3.78-19.02c-1.57-10.1-1.33-20.4-2.31-30.58
				c-0.94-9.78-3.16-19.76-8.7-27.84c0.53-0.11,1.07-0.24,1.6-0.38c1.25-0.33,2.48-0.73,3.68-1.19c5.74,5.66,7.59,14.16,10.21,21.85
				c4.18,12.25,11.07,23.63,20.34,32.66c9.28,9.02,20.94,15.66,33.56,18.55c5.62,1.29,11.83,1.76,16.86-1.07
				c3.63-2.03,6.21-5.59,7.85-9.42c1.63-3.82,2.4-7.95,3.16-12.04c1.31-6.99,2.61-13.98,3.91-20.97c0.37-1.99,0.82-4.13,2.13-5.61
				c1.34,0.23,2.69,0.41,4.04,0.55c-2.29,14.02,5.1,27.82,12.24,40.22c4.36,7.57,8.72,15.15,13.08,22.72
				c2.62,4.54,5.23,9.09,7.5,13.81c13.22,27.57,13.48,61.02,0.7,88.8c-2.03,4.43-4.39,8.71-6.3,13.19c4.5,3.67,7.21,9.26,8.61,14.93
				c1.42,5.76,1.69,11.73,2.27,17.63c0.03,0.32,0.06,0.63,0.09,0.95C350.33,442.43,363.7,470.47,363.57,500z"/>
			<path style="fill:#A0A984;" d="M199.444,383.337c31.397,3.207,63.051,3.667,94.516,1.241c10.767-0.805,22.395-1.801,32.304,3.603
				c-3.157,8.08-12.908,8.846-20.284,9.88c-21.702,2.865-43.598,4.728-65.184,8.298c-7.066,1.351-14.479,2.039-21.158,4.762
				c-2.142,0.972-4.098,2.365-5.409,4.276l0.084-0.454c0.395,1.75,1.721,3.145,3.409,3.94c5.107,2.343,11.719,1.446,17.235,1.784
				c0,0,5.891,0.116,5.891,0.116c0.966,0.012,2.041,0.04,2.979,0.36c5.216,1.58,6.268,9.155,1.401,11.822
				c4.612-2.718,3.515-9.957-1.532-11.397c-0.914-0.288-1.893-0.274-2.851-0.267c0,0-5.892,0.03-5.892,0.03
				c-5.71-0.214-12.298,0.914-17.694-1.491c-1.994-0.88-3.685-2.678-4.128-4.871c1.426-2.254,3.636-3.895,5.972-4.992
				c6.81-2.914,14.236-3.702,21.424-5.191c19.193-3.42,38.642-5.229,57.955-7.732c0,0,7.232-0.962,7.232-0.962
				c6.513-1.05,15.108-1.258,18.445-7.862c0,0,0.434,1.233,0.434,1.233c-4.529-2.356-9.681-3.353-14.844-3.62
				c-5.182-0.275-10.413,0.111-15.662,0.478c-10.517,0.751-21.064,1.119-31.606,1.13
				C241.405,387.517,220.323,386.16,199.444,383.337L199.444,383.337z"/>
			<path style="fill:#A0A984;" d="M221.276,251.232c12.925,41.367,7.339,56.267-13.213,92.779
				c-5.097,9.491-9.765,19.241-12.215,29.796c0.826-5.346,2.354-10.572,4.193-15.675c3.834-10.134,9.156-19.622,14.053-29.241
				C229.872,299.375,228.647,282.934,221.276,251.232L221.276,251.232z"/>
			<path style="fill:#A0A984;" d="M190.497,414.701c-2.469,24.123-3.201,48.307-2.231,72.536
				C184.532,463.231,185.305,438.434,190.497,414.701L190.497,414.701z"/>
			<g>
				<path style="fill:#CAD1B4;" d="M246.637,269.727c-2.58,0-2.434,3.998,0.14,3.998
					C249.356,273.725,249.21,269.727,246.637,269.727z"/>
				<path style="fill:#CAD1B4;" d="M279.232,262.549c-0.068-0.263-0.196-0.49-0.382-0.681c-0.154-0.225-0.356-0.397-0.608-0.518
					c-0.162-0.06-0.325-0.119-0.487-0.178c-0.341-0.075-0.679-0.063-1.014,0.035c-0.158,0.071-0.316,0.141-0.473,0.212
					c-0.311,0.194-0.553,0.453-0.725,0.778c-0.094,0.185-0.188,0.369-0.282,0.554c-0.132,0.233-0.2,0.48-0.202,0.742
					c-0.045,0.255-0.026,0.509,0.059,0.759c0.068,0.263,0.196,0.49,0.382,0.681c0.154,0.225,0.356,0.397,0.608,0.518
					c0.162,0.06,0.325,0.119,0.487,0.178c0.341,0.075,0.679,0.063,1.014-0.035c0.158-0.071,0.315-0.141,0.473-0.212
					c0.311-0.194,0.553-0.453,0.725-0.778c0.094-0.185,0.188-0.369,0.282-0.554c0.132-0.233,0.2-0.48,0.202-0.742
					C279.337,263.053,279.317,262.8,279.232,262.549z"/>
				<path style="fill:#CAD1B4;" d="M270.266,290.854c-2.58,0-2.434,3.998,0.14,3.998
					C272.985,294.852,272.839,290.854,270.266,290.854z"/>
				<path style="fill:#CAD1B4;" d="M245.036,331.144c-0.021-0.261-0.105-0.503-0.253-0.726c-0.113-0.138-0.227-0.277-0.34-0.415
					c-0.265-0.245-0.573-0.408-0.924-0.489c-0.17-0.016-0.34-0.032-0.509-0.047c-0.351,0.013-0.677,0.112-0.978,0.295
					c-0.185,0.093-0.37,0.186-0.555,0.279c-0.242,0.138-0.432,0.324-0.57,0.559c-0.173,0.203-0.284,0.438-0.334,0.706
					c-0.067,0.256-0.069,0.51-0.006,0.762c0.021,0.261,0.105,0.503,0.253,0.726c0.113,0.138,0.227,0.277,0.34,0.415
					c0.265,0.245,0.573,0.408,0.924,0.489c0.17,0.016,0.34,0.032,0.509,0.047c0.351-0.013,0.677-0.112,0.978-0.295
					c0.185-0.093,0.37-0.186,0.555-0.279c0.242-0.138,0.432-0.324,0.57-0.559c0.173-0.203,0.284-0.438,0.334-0.706
					C245.097,331.65,245.099,331.396,245.036,331.144z"/>
				<path style="fill:#CAD1B4;" d="M279.466,342.623c-0.071-0.158-0.141-0.315-0.212-0.473c-0.194-0.311-0.453-0.553-0.778-0.725
					c-0.185-0.093-0.37-0.186-0.555-0.279c-0.233-0.132-0.48-0.2-0.742-0.202c-0.255-0.045-0.509-0.026-0.759,0.059
					c-0.263,0.068-0.49,0.196-0.681,0.382c-0.225,0.154-0.397,0.356-0.518,0.608c-0.059,0.162-0.119,0.325-0.178,0.487
					c-0.075,0.341-0.063,0.679,0.035,1.014c0.071,0.158,0.141,0.316,0.212,0.473c0.194,0.311,0.453,0.553,0.778,0.725
					c0.185,0.093,0.37,0.186,0.555,0.279c0.233,0.132,0.48,0.2,0.742,0.202c0.255,0.045,0.509,0.026,0.759-0.059
					c0.263-0.068,0.49-0.196,0.681-0.382c0.225-0.154,0.397-0.356,0.518-0.608c0.059-0.162,0.119-0.325,0.178-0.487
					C279.576,343.296,279.564,342.958,279.466,342.623z"/>
				<path style="fill:#CAD1B4;" d="M310.853,313.928c-2.58,0-2.434,3.998,0.14,3.998
					C313.572,317.925,313.426,313.928,310.853,313.928z"/>
				<path style="fill:#CAD1B4;" d="M321.907,266.467c-0.089-0.254-0.238-0.471-0.446-0.651c-0.194-0.195-0.421-0.329-0.681-0.4
					c-0.236-0.11-0.487-0.156-0.753-0.137c-0.168,0.028-0.337,0.055-0.505,0.083c-0.345,0.105-0.641,0.289-0.888,0.552
					c-0.103,0.146-0.207,0.292-0.31,0.438c-0.162,0.313-0.237,0.645-0.226,0.996v0.278c0,0.266,0.062,0.513,0.189,0.741
					c0.089,0.254,0.238,0.471,0.446,0.651c0.194,0.195,0.421,0.329,0.681,0.4c0.236,0.11,0.487,0.156,0.753,0.137
					c0.168-0.028,0.336-0.055,0.505-0.083c0.345-0.105,0.641-0.289,0.888-0.552c0.103-0.146,0.207-0.292,0.31-0.438
					c0.162-0.313,0.237-0.645,0.226-0.996v-0.278C322.096,266.942,322.033,266.695,321.907,266.467z"/>
				<path style="fill:#CAD1B4;" d="M338.93,319.488c-2.58,0-2.434,3.998,0.14,3.998C341.65,323.485,341.503,319.488,338.93,319.488z
					"/>
				<path style="fill:#CAD1B4;" d="M319.471,362.299c-2.58,0-2.434,3.998,0.14,3.998
					C322.19,366.296,322.044,362.299,319.471,362.299z"/>
				<path style="fill:#CAD1B4;" d="M286.112,321.99c-2.58,0-2.434,3.998,0.14,3.998C288.831,325.987,288.685,321.99,286.112,321.99z
					"/>
				<path style="fill:#CAD1B4;" d="M323.403,284.773c-0.105-0.345-0.289-0.641-0.552-0.888c-0.146-0.103-0.292-0.207-0.438-0.31
					c-0.313-0.162-0.645-0.237-0.996-0.226h-0.278c-0.266-0.001-0.513,0.062-0.741,0.189c-0.254,0.089-0.471,0.238-0.651,0.446
					c-0.195,0.194-0.329,0.421-0.4,0.681c-0.11,0.236-0.156,0.487-0.137,0.753c0.028,0.168,0.055,0.336,0.083,0.505
					c0.105,0.345,0.289,0.641,0.552,0.888c0.146,0.103,0.292,0.207,0.438,0.31c0.313,0.162,0.645,0.237,0.996,0.226h0.278
					c0.266,0.001,0.513-0.062,0.741-0.189c0.254-0.089,0.471-0.238,0.652-0.446c0.195-0.194,0.329-0.421,0.4-0.681
					c0.11-0.236,0.156-0.487,0.137-0.753C323.458,285.109,323.43,284.941,323.403,284.773z"/>
				<path style="fill:#CAD1B4;" d="M254.182,310.348c-0.105-0.345-0.289-0.641-0.552-0.888l-0.278-0.278
					c-0.194-0.195-0.421-0.329-0.681-0.4c-0.236-0.11-0.487-0.156-0.753-0.137c-0.266-0.001-0.513,0.062-0.741,0.189
					c-0.254,0.089-0.471,0.238-0.651,0.446c-0.103,0.146-0.207,0.292-0.31,0.438c-0.162,0.313-0.237,0.645-0.226,0.996
					c0.028,0.168,0.055,0.336,0.083,0.505c0.105,0.345,0.289,0.641,0.552,0.888c0.093,0.093,0.185,0.185,0.278,0.278
					c0.194,0.195,0.421,0.329,0.681,0.4c0.236,0.11,0.487,0.156,0.753,0.137c0.266,0,0.513-0.062,0.741-0.189
					c0.254-0.089,0.471-0.238,0.651-0.446c0.103-0.146,0.207-0.292,0.31-0.438c0.162-0.313,0.237-0.645,0.226-0.996
					C254.238,310.685,254.21,310.516,254.182,310.348z"/>
				<path style="fill:#CAD1B4;" d="M234.895,248.119c-0.089-0.254-0.238-0.471-0.446-0.651c-0.146-0.103-0.292-0.207-0.438-0.31
					c-0.313-0.162-0.645-0.237-0.996-0.226c-0.168,0.028-0.336,0.055-0.505,0.083c-0.345,0.105-0.641,0.289-0.888,0.552
					l-0.278,0.278c-0.195,0.194-0.329,0.421-0.4,0.681c-0.11,0.236-0.156,0.487-0.137,0.753c-0.001,0.266,0.062,0.513,0.189,0.741
					c0.089,0.254,0.238,0.471,0.446,0.651c0.146,0.103,0.292,0.207,0.438,0.31c0.313,0.162,0.645,0.237,0.996,0.226
					c0.168-0.028,0.336-0.055,0.505-0.083c0.345-0.105,0.641-0.289,0.888-0.552c0.093-0.093,0.185-0.185,0.278-0.278
					c0.195-0.194,0.329-0.421,0.4-0.681c0.11-0.236,0.156-0.487,0.137-0.753C235.084,248.594,235.021,248.347,234.895,248.119z"/>
				<path style="fill:#CAD1B4;" d="M204.316,326.235c-0.089-0.254-0.238-0.471-0.446-0.651c-0.194-0.195-0.421-0.329-0.681-0.4
					c-0.236-0.11-0.487-0.156-0.753-0.137c-0.168,0.028-0.336,0.055-0.505,0.083c-0.345,0.105-0.641,0.289-0.888,0.552
					c-0.103,0.146-0.207,0.292-0.31,0.438c-0.162,0.313-0.237,0.645-0.226,0.996v0.278c-0.001,0.266,0.062,0.513,0.189,0.741
					c0.089,0.254,0.238,0.471,0.446,0.651c0.194,0.195,0.421,0.329,0.681,0.4c0.236,0.11,0.487,0.156,0.753,0.137l0.505-0.083
					c0.345-0.105,0.641-0.289,0.888-0.552c0.103-0.146,0.207-0.292,0.31-0.438c0.162-0.313,0.237-0.645,0.226-0.996v-0.278
					C204.505,326.71,204.442,326.463,204.316,326.235z"/>
				<path style="fill:#CAD1B4;" d="M222.213,367.059c-0.105-0.345-0.289-0.641-0.552-0.888c-0.093-0.093-0.185-0.185-0.278-0.278
					c-0.194-0.195-0.421-0.329-0.681-0.4c-0.236-0.11-0.487-0.156-0.753-0.136c-0.266-0.001-0.513,0.062-0.741,0.189
					c-0.254,0.089-0.471,0.238-0.651,0.446c-0.103,0.146-0.207,0.292-0.31,0.438c-0.162,0.313-0.237,0.645-0.226,0.996
					c0.028,0.168,0.055,0.337,0.083,0.505c0.105,0.345,0.289,0.641,0.552,0.888l0.278,0.278c0.194,0.195,0.421,0.329,0.681,0.4
					c0.236,0.11,0.487,0.156,0.753,0.137c0.266,0.001,0.513-0.062,0.741-0.189c0.254-0.089,0.471-0.238,0.651-0.446
					c0.103-0.146,0.207-0.292,0.31-0.438c0.162-0.313,0.237-0.645,0.226-0.996L222.213,367.059z"/>
				<path style="fill:#CAD1B4;" d="M238.787,349.586c-0.089-0.254-0.238-0.471-0.446-0.652c-0.194-0.195-0.421-0.329-0.681-0.4
					c-0.236-0.11-0.487-0.156-0.753-0.137c-0.168,0.028-0.337,0.055-0.505,0.083c-0.345,0.105-0.641,0.289-0.888,0.552
					c-0.103,0.146-0.207,0.292-0.31,0.438c-0.162,0.313-0.237,0.645-0.226,0.996v0.834c0,0.266,0.062,0.513,0.189,0.741
					c0.089,0.254,0.238,0.471,0.446,0.651c0.194,0.195,0.421,0.329,0.681,0.4c0.236,0.11,0.487,0.156,0.753,0.137
					c0.168-0.028,0.336-0.055,0.505-0.083c0.345-0.105,0.641-0.289,0.888-0.552c0.103-0.146,0.207-0.292,0.31-0.438
					c0.162-0.313,0.237-0.645,0.226-0.996v-0.834C238.976,350.062,238.913,349.815,238.787,349.586z"/>
				<path style="fill:#CAD1B4;" d="M260.853,373.167c-0.105-0.345-0.289-0.641-0.552-0.888c-0.076-0.054-0.153-0.108-0.229-0.162
					c-0.135-0.227-0.312-0.409-0.537-0.54c-0.203-0.173-0.438-0.284-0.706-0.334c-0.17-0.016-0.34-0.032-0.509-0.047
					c-0.352,0.013-0.677,0.112-0.978,0.295c-0.138,0.113-0.277,0.227-0.415,0.34c-0.245,0.265-0.408,0.573-0.489,0.924
					c-0.022,0.187-0.051,0.375-0.051,0.563c0,0.02,0.002,0.041,0.004,0.061c0.024,0.183,0.047,0.37,0.092,0.549
					c0.005,0.02,0.011,0.039,0.019,0.058c0.034,0.087,0.082,0.184,0.115,0.258c0.033,0.075,0.074,0.174,0.116,0.257
					c0.009,0.018,0.019,0.036,0.031,0.053c0.118,0.179,0.258,0.346,0.408,0.499c0.014,0.015,0.03,0.029,0.046,0.042
					c0.151,0.122,0.314,0.231,0.475,0.338c0.032,0.021,0.066,0.04,0.101,0.054c0.177,0.07,0.354,0.146,0.537,0.195
					c0.017,0.005,0.034,0.008,0.052,0.011c0.186,0.027,0.374,0.048,0.562,0.052c0.021,0,0.041-0.001,0.061-0.003
					c0.266,0.001,0.513-0.062,0.741-0.189c0.254-0.089,0.471-0.238,0.651-0.446c0.195-0.194,0.329-0.421,0.4-0.681
					c0.11-0.236,0.156-0.487,0.137-0.753L260.853,373.167z"/>
				<path style="fill:#CAD1B4;" d="M267.142,330.127c-0.089-0.254-0.238-0.471-0.446-0.651c-0.194-0.195-0.421-0.329-0.681-0.4
					c-0.236-0.11-0.487-0.156-0.753-0.136c-0.168,0.028-0.337,0.055-0.505,0.083c-0.345,0.105-0.641,0.289-0.888,0.552
					c-0.103,0.146-0.207,0.292-0.31,0.438c-0.162,0.313-0.237,0.645-0.226,0.996v0.278c0,0.266,0.062,0.513,0.189,0.741
					c0.089,0.254,0.238,0.471,0.446,0.651c0.194,0.195,0.421,0.329,0.681,0.4c0.236,0.11,0.487,0.156,0.753,0.137
					c0.168-0.028,0.336-0.055,0.505-0.083c0.345-0.105,0.641-0.289,0.888-0.552c0.103-0.146,0.207-0.292,0.31-0.438
					c0.162-0.313,0.237-0.645,0.226-0.996v-0.278C267.331,330.602,267.268,330.355,267.142,330.127z"/>
				<path style="fill:#CAD1B4;" d="M293.617,366.746c-2.58,0-2.434,3.998,0.14,3.998
					C296.337,370.744,296.191,366.746,293.617,366.746z"/>
				<path style="fill:#CAD1B4;" d="M299.389,302.884c-0.089-0.254-0.238-0.471-0.446-0.651l-0.438-0.31
					c-0.313-0.162-0.645-0.237-0.996-0.226c-0.168,0.028-0.336,0.055-0.505,0.083c-0.345,0.105-0.641,0.289-0.888,0.552
					c-0.093,0.093-0.185,0.185-0.278,0.278c-0.195,0.194-0.329,0.421-0.4,0.681c-0.11,0.236-0.156,0.487-0.137,0.753
					c0,0.266,0.062,0.513,0.189,0.741c0.089,0.254,0.238,0.471,0.446,0.651l0.438,0.31c0.313,0.162,0.645,0.237,0.996,0.226
					c0.168-0.028,0.336-0.055,0.505-0.083c0.345-0.105,0.641-0.289,0.888-0.552c0.093-0.093,0.185-0.185,0.278-0.278
					c0.195-0.194,0.329-0.421,0.4-0.681c0.11-0.236,0.156-0.487,0.137-0.753C299.578,303.359,299.516,303.112,299.389,302.884z"/>
				<path style="fill:#CAD1B4;" d="M311.409,347.287c-2.58,0-2.434,3.998,0.14,3.998
					C314.128,351.284,313.982,347.287,311.409,347.287z"/>
				<path style="fill:#CAD1B4;" d="M332.258,345.897c-2.58,0-2.434,3.998,0.14,3.998
					C334.978,349.895,334.832,345.897,332.258,345.897z"/>
				<path style="fill:#CAD1B4;" d="M331.424,299.472c-2.58,0-2.434,3.998,0.14,3.998
					C334.144,303.47,333.998,299.472,331.424,299.472z"/>
				<path style="fill:#CAD1B4;" d="M304.393,275.641c-0.089-0.254-0.238-0.471-0.446-0.651c-0.146-0.103-0.292-0.207-0.438-0.31
					c-0.313-0.162-0.645-0.237-0.996-0.226c-0.168,0.028-0.336,0.055-0.505,0.083c-0.345,0.105-0.641,0.289-0.888,0.552
					c-0.093,0.093-0.185,0.185-0.278,0.278c-0.195,0.194-0.329,0.421-0.4,0.681c-0.11,0.236-0.156,0.487-0.137,0.753
					c0,0.266,0.062,0.513,0.189,0.741c0.089,0.254,0.238,0.471,0.446,0.651c0.146,0.103,0.292,0.207,0.438,0.31
					c0.313,0.162,0.645,0.237,0.996,0.226c0.168-0.028,0.336-0.055,0.505-0.083c0.345-0.105,0.641-0.289,0.888-0.552
					c0.093-0.093,0.185-0.185,0.278-0.278c0.195-0.194,0.329-0.421,0.4-0.681c0.11-0.236,0.156-0.487,0.137-0.753
					C304.582,276.116,304.519,275.869,304.393,275.641z"/>
				<path style="fill:#CAD1B4;" d="M242.467,289.187c-2.58,0-2.434,3.998,0.14,3.998
					C245.186,293.184,245.04,289.187,242.467,289.187z"/>
				<path style="fill:#CAD1B4;" d="M226.343,231.642c-2.58,0-2.434,3.998,0.14,3.998
					C229.063,235.64,228.917,231.642,226.343,231.642z"/>
				<path style="fill:#CAD1B4;" d="M311.899,244.227c-0.089-0.254-0.238-0.471-0.446-0.651c-0.146-0.103-0.292-0.207-0.438-0.31
					c-0.313-0.162-0.645-0.237-0.996-0.226c-0.168,0.028-0.336,0.055-0.505,0.083c-0.345,0.105-0.641,0.289-0.888,0.552
					c-0.185,0.185-0.371,0.371-0.556,0.556c-0.195,0.194-0.329,0.421-0.4,0.681c-0.11,0.236-0.156,0.487-0.137,0.753
					c-0.001,0.266,0.062,0.513,0.189,0.741c0.089,0.254,0.238,0.471,0.446,0.652c0.146,0.103,0.292,0.207,0.438,0.31
					c0.313,0.162,0.645,0.237,0.996,0.226c0.168-0.028,0.337-0.055,0.505-0.083c0.345-0.105,0.641-0.289,0.888-0.552l0.556-0.556
					c0.195-0.194,0.329-0.421,0.4-0.681c0.11-0.236,0.156-0.487,0.137-0.753C312.088,244.703,312.025,244.455,311.899,244.227z"/>
				<path style="fill:#CAD1B4;" d="M295.658,265.036c-0.021-0.261-0.105-0.503-0.253-0.726c-0.113-0.138-0.227-0.277-0.34-0.415
					c-0.265-0.245-0.573-0.408-0.924-0.489c-0.17-0.016-0.34-0.032-0.509-0.047c-0.351,0.013-0.677,0.112-0.978,0.295
					c-0.185,0.093-0.37,0.186-0.555,0.279c-0.242,0.138-0.432,0.324-0.57,0.559c-0.173,0.203-0.284,0.438-0.334,0.706
					c-0.067,0.256-0.069,0.51-0.006,0.762c0.021,0.261,0.105,0.503,0.253,0.726c0.113,0.138,0.227,0.277,0.34,0.415
					c0.265,0.245,0.573,0.408,0.924,0.489c0.17,0.016,0.34,0.032,0.509,0.047c0.351-0.013,0.677-0.112,0.978-0.295
					c0.185-0.093,0.37-0.186,0.555-0.279c0.242-0.138,0.432-0.324,0.57-0.559c0.173-0.203,0.284-0.438,0.334-0.706
					C295.719,265.542,295.721,265.288,295.658,265.036z"/>
				<path style="fill:#CAD1B4;" d="M263.356,277.545c-0.105-0.345-0.289-0.641-0.552-0.888c-0.093-0.093-0.185-0.185-0.278-0.278
					c-0.194-0.195-0.421-0.329-0.681-0.4c-0.236-0.11-0.487-0.156-0.753-0.137c-0.266,0-0.513,0.062-0.741,0.189
					c-0.254,0.089-0.471,0.238-0.651,0.446l-0.31,0.438c-0.162,0.313-0.237,0.645-0.226,0.996c0.028,0.168,0.055,0.336,0.083,0.505
					c0.105,0.345,0.289,0.641,0.552,0.888l0.278,0.278c0.194,0.195,0.421,0.329,0.681,0.4c0.236,0.11,0.487,0.156,0.753,0.137
					c0.266,0,0.513-0.062,0.741-0.189c0.254-0.089,0.471-0.238,0.651-0.446c0.103-0.146,0.207-0.292,0.31-0.438
					c0.162-0.313,0.237-0.645,0.226-0.996C263.411,277.882,263.384,277.713,263.356,277.545z"/>
				<path style="fill:#CAD1B4;" d="M286.668,284.739c-2.58,0-2.434,3.998,0.14,3.998
					C289.387,288.736,289.241,284.739,286.668,284.739z"/>
				<path style="fill:#CAD1B4;" d="M312.243,295.858c-2.58,0-2.434,3.998,0.14,3.998
					C314.962,299.856,314.816,295.858,312.243,295.858z"/>
				<path style="fill:#CAD1B4;" d="M341.194,289.219c-0.071-0.158-0.141-0.316-0.212-0.473c-0.194-0.311-0.453-0.553-0.778-0.725
					c-0.162-0.06-0.325-0.119-0.487-0.178c-0.341-0.075-0.679-0.063-1.014,0.035c-0.016,0.004-0.031,0.009-0.046,0.015
					c-0.004,0.002-0.008,0.003-0.013,0.005c-0.158,0.071-0.316,0.141-0.473,0.212c-0.008,0.004-0.016,0.008-0.024,0.012
					c-0.012,0.007-0.023,0.014-0.034,0.022c-0.157,0.111-0.303,0.238-0.447,0.365c-0.022,0.02-0.042,0.042-0.06,0.066
					c-0.114,0.153-0.235,0.306-0.333,0.472c-0.008,0.013-0.014,0.026-0.021,0.04c-0.077,0.169-0.133,0.348-0.193,0.522
					c-0.005,0.015-0.01,0.03-0.014,0.046c-0.045,0.192-0.053,0.394-0.058,0.591c0,0.016,0,0.032,0.002,0.047
					c0.018,0.181,0.053,0.36,0.088,0.538c0.003,0.016,0.007,0.031,0.012,0.046c0.061,0.176,0.147,0.344,0.228,0.511
					c0.138,0.242,0.324,0.432,0.559,0.57c0.203,0.173,0.438,0.284,0.706,0.334c0.256,0.067,0.51,0.069,0.762,0.006
					c0.261-0.021,0.503-0.105,0.726-0.253c0.138-0.113,0.277-0.227,0.415-0.34c0.211-0.228,0.349-0.494,0.438-0.786
					c0.044-0.065,0.093-0.125,0.128-0.198c0.132-0.233,0.2-0.48,0.202-0.742C341.298,289.723,341.278,289.47,341.194,289.219z"/>
				<path style="fill:#CAD1B4;" d="M319.536,332.253c-0.021-0.261-0.105-0.503-0.253-0.726c-0.113-0.138-0.227-0.277-0.34-0.415
					c-0.265-0.245-0.573-0.408-0.924-0.489c-0.17-0.016-0.34-0.032-0.509-0.047c-0.352,0.013-0.677,0.112-0.978,0.295
					c-0.185,0.094-0.369,0.188-0.554,0.282c-0.242,0.138-0.432,0.324-0.57,0.559c-0.173,0.203-0.284,0.438-0.334,0.706
					c-0.067,0.256-0.069,0.51-0.006,0.762c0.021,0.261,0.105,0.503,0.253,0.726c0.113,0.138,0.227,0.277,0.34,0.415
					c0.265,0.245,0.573,0.408,0.924,0.489c0.17,0.016,0.34,0.032,0.509,0.047c0.351-0.013,0.677-0.112,0.978-0.295
					c0.185-0.094,0.369-0.188,0.554-0.282c0.242-0.138,0.432-0.324,0.57-0.559c0.173-0.203,0.284-0.438,0.334-0.706
					C319.598,332.759,319.6,332.505,319.536,332.253z"/>
				<path style="fill:#CAD1B4;" d="M292.784,342.561c-2.58,0-2.434,3.998,0.14,3.998
					C295.503,346.559,295.357,342.561,292.784,342.561z"/>
				<path style="fill:#CAD1B4;" d="M260.192,358.204c-0.089-0.254-0.238-0.471-0.446-0.651c-0.146-0.103-0.292-0.207-0.438-0.31
					c-0.313-0.162-0.645-0.237-0.996-0.226c-0.168,0.028-0.336,0.055-0.505,0.083c-0.345,0.105-0.641,0.289-0.888,0.552
					c-0.093,0.093-0.185,0.185-0.278,0.278c-0.195,0.194-0.329,0.421-0.4,0.681c-0.11,0.236-0.156,0.487-0.137,0.753
					c-0.001,0.266,0.062,0.513,0.189,0.741c0.089,0.254,0.238,0.471,0.446,0.651c0.146,0.103,0.292,0.207,0.438,0.31
					c0.313,0.162,0.645,0.237,0.996,0.226c0.168-0.028,0.336-0.055,0.505-0.083c0.345-0.105,0.641-0.289,0.888-0.552
					c0.093-0.093,0.185-0.185,0.278-0.278c0.195-0.194,0.329-0.421,0.4-0.681c0.11-0.236,0.156-0.487,0.137-0.753
					C260.382,358.679,260.319,358.432,260.192,358.204z"/>
				<path style="fill:#CAD1B4;" d="M237.741,373.418c-2.58,0-2.434,3.998,0.14,3.998
					C240.46,377.416,240.314,373.418,237.741,373.418z"/>
				<path style="fill:#CAD1B4;" d="M351.162,488.507c-2.58,0-2.434,3.998,0.14,3.998
					C353.881,492.505,353.735,488.507,351.162,488.507z"/>
				<path style="fill:#CAD1B4;" d="M350.646,466.58c-0.105-0.345-0.289-0.641-0.552-0.888c-0.139-0.139-0.278-0.278-0.417-0.417
					c-0.194-0.195-0.421-0.329-0.681-0.4c-0.236-0.11-0.487-0.156-0.753-0.137c-0.266,0-0.513,0.062-0.741,0.189
					c-0.254,0.089-0.471,0.238-0.651,0.446l-0.31,0.438c-0.162,0.313-0.237,0.645-0.226,0.996c0.028,0.168,0.055,0.336,0.083,0.505
					c0.105,0.345,0.289,0.641,0.552,0.888c0.139,0.139,0.278,0.278,0.417,0.417c0.194,0.195,0.421,0.329,0.681,0.4
					c0.236,0.11,0.487,0.156,0.753,0.137c0.266,0.001,0.513-0.062,0.741-0.189c0.254-0.089,0.471-0.238,0.651-0.446
					c0.103-0.146,0.207-0.292,0.31-0.438c0.162-0.313,0.237-0.645,0.226-0.996L350.646,466.58z"/>
				<path style="fill:#CAD1B4;" d="M325.726,450.144c-2.58,0-2.434,3.998,0.14,3.998
					C328.445,454.142,328.299,450.144,325.726,450.144z"/>
				<path style="fill:#CAD1B4;" d="M319.372,477.839c-0.068-0.263-0.196-0.49-0.382-0.681c-0.154-0.225-0.356-0.397-0.608-0.518
					c-0.162-0.06-0.325-0.119-0.487-0.178c-0.341-0.075-0.679-0.063-1.014,0.035c-0.158,0.071-0.316,0.141-0.473,0.212
					c-0.311,0.194-0.553,0.453-0.725,0.778c-0.139,0.278-0.278,0.556-0.417,0.834c-0.132,0.233-0.2,0.48-0.202,0.742
					c-0.045,0.255-0.026,0.509,0.059,0.759c0.068,0.263,0.196,0.49,0.382,0.681c0.154,0.225,0.356,0.397,0.608,0.518
					c0.162,0.059,0.325,0.119,0.487,0.178c0.341,0.075,0.679,0.063,1.014-0.035c0.158-0.071,0.316-0.141,0.473-0.212
					c0.311-0.194,0.553-0.453,0.725-0.778c0.139-0.278,0.278-0.556,0.417-0.834c0.132-0.233,0.2-0.48,0.202-0.742
					C319.476,478.343,319.456,478.089,319.372,477.839z"/>
				<path style="fill:#CAD1B4;" d="M335.316,489.758c-2.58,0-2.434,3.998,0.14,3.998
					C338.036,493.755,337.889,489.758,335.316,489.758z"/>
				<path style="fill:#CAD1B4;" d="M336.779,470.93c-0.089-0.254-0.238-0.471-0.446-0.652c-0.194-0.195-0.421-0.329-0.681-0.4
					c-0.236-0.11-0.487-0.156-0.753-0.137c-0.168,0.028-0.336,0.055-0.505,0.083c-0.345,0.105-0.641,0.289-0.888,0.552
					c-0.103,0.146-0.207,0.292-0.31,0.438c-0.162,0.313-0.237,0.645-0.226,0.996v0.417c-0.001,0.266,0.062,0.513,0.189,0.741
					c0.089,0.254,0.238,0.471,0.446,0.651c0.194,0.195,0.421,0.329,0.681,0.4c0.236,0.11,0.487,0.156,0.753,0.137
					c0.168-0.028,0.336-0.055,0.505-0.083c0.345-0.105,0.641-0.289,0.888-0.552c0.103-0.146,0.207-0.292,0.31-0.438
					c0.162-0.313,0.237-0.645,0.226-0.996v-0.417C336.968,471.405,336.906,471.158,336.779,470.93z"/>
				<path style="fill:#CAD1B4;" d="M340.32,440.97c-2.58,0-2.434,3.998,0.14,3.998C343.039,444.968,342.893,440.97,340.32,440.97z"
					/>
				<path style="fill:#CAD1B4;" d="M325.309,423.874c-2.58,0-2.434,3.998,0.14,3.998
					C328.028,427.871,327.882,423.874,325.309,423.874z"/>
				<path style="fill:#CAD1B4;" d="M311.032,435.723c-0.105-0.345-0.289-0.641-0.552-0.888c-0.146-0.103-0.292-0.207-0.438-0.31
					c-0.313-0.162-0.645-0.237-0.996-0.226h-0.834c-0.266-0.001-0.513,0.062-0.741,0.189c-0.254,0.089-0.471,0.238-0.651,0.446
					c-0.195,0.194-0.329,0.421-0.4,0.681c-0.11,0.236-0.156,0.487-0.137,0.753c0.028,0.168,0.055,0.337,0.083,0.505
					c0.105,0.345,0.289,0.641,0.552,0.888c0.146,0.103,0.292,0.207,0.438,0.31c0.313,0.162,0.645,0.237,0.996,0.226h0.834
					c0.266,0,0.513-0.062,0.741-0.189c0.254-0.089,0.471-0.238,0.651-0.446c0.195-0.194,0.329-0.421,0.4-0.681
					c0.11-0.236,0.156-0.487,0.137-0.753C311.087,436.059,311.059,435.891,311.032,435.723z"/>
				<path style="fill:#CAD1B4;" d="M299.374,461.366c-0.021-0.261-0.105-0.503-0.253-0.726c-0.113-0.138-0.227-0.277-0.34-0.415
					c-0.265-0.245-0.573-0.408-0.924-0.489c-0.17-0.016-0.34-0.032-0.509-0.047c-0.351,0.013-0.677,0.112-0.978,0.295
					c-0.277,0.141-0.554,0.282-0.831,0.423c-0.242,0.138-0.432,0.324-0.57,0.559c-0.173,0.203-0.284,0.438-0.334,0.706
					c-0.067,0.256-0.069,0.51-0.006,0.762c0.021,0.261,0.105,0.503,0.253,0.726c0.113,0.138,0.227,0.277,0.34,0.415
					c0.265,0.245,0.573,0.408,0.924,0.489c0.17,0.016,0.34,0.032,0.509,0.047c0.352-0.013,0.677-0.112,0.978-0.295
					c0.277-0.141,0.554-0.282,0.831-0.423c0.242-0.138,0.432-0.324,0.57-0.559c0.173-0.203,0.284-0.438,0.334-0.706
					C299.435,461.871,299.437,461.617,299.374,461.366z"/>
				<path style="fill:#CAD1B4;" d="M288.614,481.001c-2.58,0-2.434,3.998,0.14,3.998
					C291.333,484.999,291.187,481.001,288.614,481.001z"/>
				<path style="fill:#CAD1B4;" d="M299.038,445.14c-2.58,0-2.434,3.998,0.14,3.998C301.758,449.138,301.612,445.14,299.038,445.14z
					"/>
				<path style="fill:#CAD1B4;" d="M310.297,459.318c-2.58,0-2.434,3.998,0.14,3.998
					C313.016,463.315,312.87,459.318,310.297,459.318z"/>
				<path style="fill:#CAD1B4;" d="M305.922,485.942c-0.089-0.254-0.238-0.471-0.446-0.651c-0.194-0.195-0.421-0.329-0.681-0.4
					c-0.236-0.11-0.487-0.156-0.753-0.137c-0.168,0.028-0.337,0.055-0.505,0.083c-0.345,0.105-0.641,0.289-0.888,0.552l-0.31,0.438
					c-0.162,0.313-0.237,0.645-0.226,0.996v0.417c0,0.266,0.062,0.513,0.189,0.741c0.089,0.254,0.238,0.471,0.446,0.651
					c0.194,0.195,0.421,0.329,0.681,0.4c0.236,0.11,0.487,0.156,0.753,0.137c0.168-0.028,0.337-0.055,0.505-0.083
					c0.345-0.105,0.641-0.289,0.888-0.552c0.103-0.146,0.207-0.292,0.31-0.438c0.162-0.313,0.237-0.645,0.226-0.996v-0.417
					C306.111,486.417,306.048,486.17,305.922,485.942z"/>
				<path style="fill:#CAD1B4;" d="M284.027,426.793c-2.58,0-2.434,3.998,0.14,3.998C286.746,430.79,286.6,426.793,284.027,426.793z
					"/>
				<path style="fill:#CAD1B4;" d="M311.76,403.378c-0.089-0.254-0.238-0.471-0.446-0.652c-0.194-0.195-0.421-0.329-0.681-0.4
					c-0.236-0.11-0.487-0.156-0.753-0.137c-0.168,0.028-0.336,0.055-0.505,0.083c-0.345,0.105-0.641,0.289-0.888,0.552
					c-0.103,0.146-0.207,0.292-0.31,0.438c-0.162,0.313-0.237,0.645-0.226,0.996v0.834c-0.001,0.266,0.062,0.513,0.189,0.741
					c0.089,0.254,0.238,0.471,0.446,0.651c0.194,0.195,0.421,0.329,0.681,0.4c0.236,0.11,0.487,0.156,0.753,0.137
					c0.168-0.028,0.337-0.055,0.505-0.083c0.345-0.105,0.641-0.289,0.888-0.552c0.103-0.146,0.207-0.292,0.31-0.438
					c0.162-0.313,0.237-0.645,0.226-0.996v-0.834C311.949,403.853,311.886,403.606,311.76,403.378z"/>
				<path style="fill:#CAD1B4;" d="M315.718,415.951c-2.58,0-2.434,3.998,0.14,3.998
					C318.437,419.949,318.291,415.951,315.718,415.951z"/>
				<path style="fill:#CAD1B4;" d="M335.111,395.872c-0.089-0.254-0.238-0.471-0.446-0.651c-0.194-0.195-0.421-0.329-0.681-0.4
					c-0.236-0.11-0.487-0.156-0.753-0.137l-0.505,0.083c-0.345,0.105-0.641,0.289-0.888,0.552c-0.103,0.146-0.207,0.292-0.31,0.438
					c-0.162,0.313-0.237,0.645-0.226,0.996v0.417c0,0.266,0.062,0.513,0.189,0.741c0.089,0.254,0.238,0.471,0.446,0.651
					c0.194,0.195,0.421,0.329,0.681,0.4c0.236,0.11,0.487,0.156,0.753,0.137c0.168-0.028,0.336-0.055,0.505-0.083
					c0.345-0.105,0.641-0.289,0.888-0.552c0.103-0.146,0.207-0.292,0.31-0.438c0.162-0.313,0.237-0.645,0.226-0.996v-0.417
					C335.3,396.347,335.238,396.1,335.111,395.872z"/>
				<path style="fill:#CAD1B4;" d="M337.401,410.113c-2.58,0-2.434,3.998,0.14,3.998
					C340.121,414.111,339.974,410.113,337.401,410.113z"/>
				<path style="fill:#CAD1B4;" d="M272.768,391.766c-2.58,0-2.434,3.998,0.14,3.998
					C275.487,395.763,275.341,391.766,272.768,391.766z"/>
				<path style="fill:#CAD1B4;" d="M230.97,394.024c-0.105-0.345-0.289-0.641-0.552-0.888c-0.146-0.103-0.292-0.207-0.438-0.31
					c-0.313-0.162-0.645-0.237-0.996-0.226h-0.417c-0.266-0.001-0.513,0.062-0.741,0.189c-0.254,0.089-0.471,0.238-0.651,0.446
					c-0.195,0.194-0.329,0.421-0.4,0.681c-0.11,0.236-0.156,0.487-0.137,0.753c0.028,0.168,0.055,0.337,0.083,0.505
					c0.105,0.345,0.289,0.641,0.552,0.888c0.146,0.103,0.292,0.207,0.438,0.31c0.313,0.162,0.645,0.237,0.996,0.226h0.417
					c0.266,0,0.513-0.062,0.741-0.189c0.254-0.089,0.471-0.238,0.651-0.446c0.195-0.194,0.329-0.421,0.4-0.681
					c0.11-0.236,0.156-0.487,0.137-0.753C231.025,394.36,230.998,394.192,230.97,394.024z"/>
				<path style="fill:#CAD1B4;" d="M202.615,396.943c-0.068-0.263-0.196-0.49-0.382-0.681c-0.154-0.225-0.356-0.397-0.608-0.518
					c-0.162-0.06-0.325-0.119-0.487-0.178c-0.341-0.075-0.679-0.063-1.014,0.035c-0.158,0.071-0.315,0.141-0.473,0.212
					c-0.311,0.194-0.553,0.453-0.725,0.778c-0.139,0.278-0.278,0.556-0.417,0.834c-0.132,0.233-0.2,0.48-0.202,0.742
					c-0.045,0.255-0.026,0.509,0.059,0.759c0.068,0.263,0.195,0.49,0.382,0.681c0.154,0.225,0.356,0.397,0.608,0.518
					c0.162,0.059,0.325,0.119,0.487,0.178c0.341,0.075,0.679,0.063,1.014-0.035c0.158-0.071,0.315-0.141,0.473-0.212
					c0.311-0.194,0.553-0.454,0.725-0.778c0.139-0.278,0.278-0.556,0.417-0.834c0.132-0.233,0.2-0.48,0.202-0.742
					C202.719,397.447,202.7,397.194,202.615,396.943z"/>
				<path style="fill:#CAD1B4;" d="M204.283,426.966c-0.105-0.345-0.289-0.641-0.552-0.888c-0.146-0.103-0.292-0.207-0.438-0.31
					c-0.313-0.162-0.645-0.237-0.996-0.226h-0.417c-0.266-0.001-0.513,0.062-0.741,0.189c-0.254,0.089-0.471,0.238-0.651,0.446
					c-0.195,0.194-0.329,0.421-0.4,0.681c-0.11,0.236-0.156,0.487-0.137,0.753c0.028,0.168,0.055,0.336,0.083,0.505
					c0.105,0.345,0.289,0.641,0.552,0.888c0.146,0.103,0.292,0.207,0.438,0.31c0.313,0.162,0.645,0.237,0.996,0.226h0.417
					c0.266,0.001,0.513-0.062,0.741-0.189c0.254-0.089,0.471-0.238,0.652-0.446c0.195-0.194,0.329-0.421,0.4-0.681
					c0.11-0.236,0.156-0.487,0.137-0.753C204.338,427.302,204.31,427.134,204.283,426.966z"/>
				<path style="fill:#CAD1B4;" d="M238.575,412.615c-2.58,0-2.434,3.998,0.14,3.998
					C241.294,416.613,241.148,412.615,238.575,412.615z"/>
				<path style="fill:#CAD1B4;" d="M247.127,447.996c-0.089-0.254-0.238-0.471-0.446-0.651c-0.194-0.195-0.421-0.329-0.681-0.4
					c-0.236-0.11-0.487-0.156-0.753-0.137l-0.505,0.083c-0.345,0.105-0.641,0.289-0.888,0.552c-0.103,0.146-0.207,0.292-0.31,0.438
					c-0.162,0.313-0.237,0.645-0.226,0.996v0.417c0,0.266,0.062,0.513,0.189,0.741c0.089,0.254,0.238,0.471,0.446,0.651
					c0.194,0.195,0.421,0.329,0.681,0.4c0.236,0.11,0.487,0.156,0.753,0.137c0.168-0.028,0.336-0.055,0.505-0.083
					c0.345-0.105,0.641-0.289,0.888-0.552c0.103-0.146,0.207-0.292,0.31-0.438c0.162-0.313,0.237-0.645,0.226-0.996v-0.417
					C247.316,448.471,247.253,448.224,247.127,447.996z"/>
				<path style="fill:#CAD1B4;" d="M269.644,412.552c-0.089-0.254-0.238-0.471-0.446-0.651c-0.194-0.195-0.421-0.329-0.681-0.4
					c-0.236-0.11-0.487-0.156-0.753-0.137c-0.168,0.028-0.336,0.055-0.505,0.083c-0.345,0.105-0.641,0.289-0.888,0.552
					c-0.103,0.146-0.207,0.292-0.31,0.438c-0.162,0.313-0.237,0.645-0.226,0.996v0.417c-0.001,0.266,0.062,0.513,0.189,0.741
					c0.089,0.254,0.238,0.471,0.446,0.651c0.194,0.195,0.421,0.329,0.681,0.4c0.236,0.11,0.487,0.156,0.753,0.137l0.505-0.083
					c0.345-0.105,0.641-0.289,0.888-0.552c0.103-0.146,0.207-0.292,0.31-0.438c0.162-0.313,0.237-0.645,0.226-0.996v-0.417
					C269.833,413.027,269.77,412.78,269.644,412.552z"/>
				<path style="fill:#CAD1B4;" d="M292.578,411.718c-0.089-0.254-0.238-0.471-0.446-0.651c-0.146-0.103-0.292-0.207-0.438-0.31
					c-0.313-0.162-0.645-0.237-0.996-0.226c-0.168,0.028-0.337,0.055-0.505,0.083c-0.345,0.105-0.641,0.289-0.888,0.552
					c-0.139,0.139-0.278,0.278-0.417,0.417c-0.195,0.194-0.329,0.421-0.4,0.681c-0.11,0.236-0.156,0.487-0.136,0.753
					c-0.001,0.266,0.062,0.513,0.189,0.741c0.089,0.254,0.238,0.471,0.446,0.651c0.146,0.103,0.292,0.207,0.438,0.31
					c0.313,0.162,0.645,0.237,0.996,0.226c0.168-0.028,0.337-0.055,0.505-0.083c0.345-0.105,0.641-0.289,0.888-0.552
					c0.139-0.139,0.278-0.278,0.417-0.417c0.195-0.194,0.329-0.421,0.4-0.681c0.11-0.236,0.156-0.487,0.137-0.753
					C292.768,412.193,292.705,411.946,292.578,411.718z"/>
				<path style="fill:#CAD1B4;" d="M271.835,443.229c-0.105-0.345-0.289-0.641-0.552-0.888c-0.146-0.103-0.292-0.207-0.438-0.31
					c-0.313-0.162-0.645-0.237-0.996-0.226h-0.417c-0.266-0.001-0.513,0.062-0.741,0.189c-0.254,0.089-0.471,0.238-0.651,0.446
					c-0.195,0.194-0.329,0.421-0.4,0.681c-0.11,0.236-0.156,0.487-0.137,0.753c0.028,0.168,0.055,0.337,0.083,0.505
					c0.105,0.345,0.289,0.641,0.552,0.888c0.146,0.103,0.292,0.207,0.438,0.31c0.313,0.162,0.645,0.237,0.996,0.226h0.417
					c0.266,0,0.513-0.062,0.741-0.189c0.254-0.089,0.471-0.238,0.652-0.446c0.195-0.194,0.329-0.421,0.4-0.681
					c0.11-0.236,0.156-0.487,0.137-0.753C271.89,443.565,271.863,443.397,271.835,443.229z"/>
				<path style="fill:#CAD1B4;" d="M271.729,468.845c-0.089-0.254-0.238-0.471-0.446-0.651c-0.194-0.195-0.421-0.329-0.681-0.4
					c-0.236-0.11-0.487-0.156-0.753-0.137c-0.168,0.028-0.336,0.055-0.505,0.083c-0.345,0.105-0.641,0.289-0.888,0.552
					c-0.103,0.146-0.207,0.292-0.31,0.438c-0.162,0.313-0.237,0.645-0.226,0.996v0.417c-0.001,0.266,0.062,0.513,0.189,0.741
					c0.089,0.254,0.238,0.471,0.446,0.651c0.194,0.195,0.421,0.329,0.681,0.4c0.236,0.11,0.487,0.156,0.753,0.137
					c0.168-0.028,0.337-0.055,0.505-0.083c0.345-0.105,0.641-0.289,0.888-0.552c0.103-0.146,0.207-0.292,0.31-0.438
					c0.162-0.313,0.237-0.645,0.226-0.996v-0.417C271.918,469.32,271.855,469.073,271.729,468.845z"/>
				<path style="fill:#CAD1B4;" d="M265.474,484.691c-0.089-0.254-0.238-0.471-0.446-0.651c-0.194-0.195-0.421-0.329-0.681-0.4
					c-0.236-0.11-0.487-0.156-0.753-0.137c-0.168,0.028-0.337,0.055-0.505,0.083c-0.345,0.105-0.641,0.289-0.888,0.552
					c-0.103,0.146-0.207,0.292-0.31,0.438c-0.162,0.313-0.237,0.645-0.226,0.996v0.417c0,0.266,0.062,0.513,0.189,0.741
					c0.089,0.254,0.238,0.471,0.446,0.651c0.194,0.195,0.421,0.329,0.681,0.4c0.236,0.11,0.487,0.156,0.753,0.137
					c0.168-0.028,0.337-0.055,0.505-0.083c0.345-0.105,0.641-0.289,0.888-0.552c0.103-0.146,0.207-0.292,0.31-0.438
					c0.162-0.313,0.237-0.645,0.226-0.996v-0.417C265.663,485.166,265.601,484.919,265.474,484.691z"/>
				<path style="fill:#CAD1B4;" d="M248.583,475.163c-2.58,0-2.434,3.998,0.14,3.998
					C251.302,479.161,251.156,475.163,248.583,475.163z"/>
				<path style="fill:#CAD1B4;" d="M283.193,449.727c-2.58,0-2.434,3.998,0.14,3.998
					C285.912,453.725,285.766,449.727,283.193,449.727z"/>
				<path style="fill:#CAD1B4;" d="M236.702,463.424c-0.089-0.254-0.238-0.471-0.446-0.651c-0.146-0.103-0.292-0.207-0.438-0.31
					c-0.313-0.162-0.645-0.237-0.996-0.226c-0.168,0.028-0.336,0.055-0.505,0.083c-0.345,0.105-0.641,0.289-0.888,0.552
					c-0.139,0.139-0.278,0.278-0.417,0.417c-0.195,0.194-0.329,0.421-0.4,0.681c-0.11,0.236-0.156,0.487-0.137,0.753
					c-0.001,0.266,0.062,0.513,0.189,0.741c0.089,0.254,0.238,0.471,0.446,0.651c0.146,0.103,0.292,0.207,0.438,0.31
					c0.313,0.162,0.645,0.237,0.996,0.226l0.505-0.083c0.345-0.105,0.641-0.289,0.888-0.552l0.417-0.417
					c0.195-0.194,0.329-0.421,0.4-0.681c0.11-0.236,0.156-0.487,0.137-0.753C236.891,463.9,236.828,463.652,236.702,463.424z"/>
				<path style="fill:#CAD1B4;" d="M218.56,486.005c-2.58,0-2.434,3.998,0.14,3.998C221.279,490.003,221.133,486.005,218.56,486.005
					z"/>
				<path style="fill:#CAD1B4;" d="M205.845,467.177c-0.089-0.254-0.238-0.471-0.446-0.651c-0.194-0.195-0.421-0.329-0.681-0.4
					c-0.236-0.11-0.487-0.156-0.753-0.137c-0.168,0.028-0.337,0.055-0.505,0.083c-0.345,0.105-0.641,0.289-0.888,0.552
					c-0.103,0.146-0.207,0.292-0.31,0.438c-0.162,0.313-0.237,0.645-0.226,0.996v0.417c0,0.266,0.062,0.513,0.189,0.741
					c0.089,0.254,0.238,0.471,0.446,0.651c0.194,0.195,0.421,0.329,0.681,0.4c0.236,0.11,0.487,0.156,0.753,0.137
					c0.168-0.028,0.336-0.055,0.505-0.083c0.345-0.105,0.641-0.289,0.888-0.552c0.103-0.146,0.207-0.292,0.31-0.438
					c0.162-0.313,0.237-0.645,0.226-0.996v-0.417C206.034,467.652,205.971,467.405,205.845,467.177z"/>
				<path style="fill:#CAD1B4;" d="M233.677,483.203c-0.139-0.278-0.278-0.556-0.417-0.834c-0.138-0.242-0.324-0.432-0.559-0.57
					c-0.203-0.173-0.438-0.284-0.706-0.334c-0.256-0.067-0.51-0.069-0.762-0.006c-0.261,0.021-0.503,0.105-0.726,0.253
					c-0.138,0.113-0.277,0.227-0.415,0.34c-0.245,0.265-0.408,0.573-0.489,0.924c-0.016,0.17-0.032,0.34-0.047,0.509
					c0.013,0.352,0.112,0.677,0.295,0.978c0.139,0.278,0.278,0.556,0.417,0.834c0.138,0.242,0.324,0.432,0.559,0.57
					c0.203,0.173,0.438,0.284,0.706,0.334c0.256,0.067,0.51,0.069,0.762,0.006c0.261-0.021,0.503-0.105,0.726-0.253
					c0.138-0.113,0.277-0.227,0.415-0.34c0.245-0.265,0.408-0.573,0.489-0.924c0.016-0.17,0.032-0.34,0.047-0.509
					C233.958,483.83,233.86,483.504,233.677,483.203z"/>
				<path style="fill:#CAD1B4;" d="M221.273,443.409c-0.089-0.254-0.238-0.471-0.446-0.652c-0.194-0.195-0.421-0.329-0.681-0.4
					c-0.236-0.11-0.487-0.156-0.753-0.137c-0.168,0.028-0.336,0.055-0.505,0.083c-0.345,0.105-0.641,0.289-0.888,0.552
					c-0.103,0.146-0.207,0.292-0.31,0.438c-0.162,0.313-0.237,0.645-0.226,0.996v0.417c-0.001,0.266,0.062,0.513,0.189,0.741
					c0.089,0.254,0.238,0.471,0.446,0.651c0.194,0.195,0.421,0.329,0.681,0.4c0.236,0.11,0.487,0.156,0.753,0.136
					c0.168-0.028,0.336-0.055,0.505-0.083c0.345-0.105,0.641-0.289,0.888-0.552c0.103-0.146,0.207-0.292,0.31-0.438
					c0.162-0.313,0.237-0.645,0.226-0.996v-0.417C221.463,443.884,221.4,443.637,221.273,443.409z"/>
				<path style="fill:#CAD1B4;" d="M203.365,446.997c-0.003-0.016-0.008-0.031-0.014-0.046c0.032,0.077-0.138-0.327-0.216-0.481
					c-0.002-0.003-0.003-0.006-0.005-0.009c-0.002-0.003-0.003-0.005-0.005-0.008c-0.001-0.001-0.002-0.002-0.002-0.003
					c-0.001-0.001-0.001-0.002-0.002-0.003c-0.113-0.138-0.227-0.277-0.34-0.415c-0.004-0.005-0.008-0.009-0.012-0.013
					c-0.138-0.121-0.293-0.225-0.45-0.319c-0.005-0.003-0.01-0.005-0.015-0.008c-0.163-0.071-0.329-0.141-0.502-0.183
					c-0.176-0.043-0.361-0.055-0.541-0.051c-0.006,0-0.011,0.001-0.017,0.001c-0.084,0.01-0.312,0.051-0.256,0.042
					c0.016-0.003-0.173,0.026-0.256,0.042c-0.003,0.001-0.007,0.001-0.01,0.002c-0.013,0.003-0.025,0.007-0.038,0.012
					c-0.002,0.001-0.003,0.001-0.005,0.002c-0.09,0.039-0.386,0.171-0.475,0.213c-0.003,0.002-0.006,0.003-0.01,0.005
					c-0.007,0.003-0.013,0.007-0.02,0.011c-0.013,0.007-0.025,0.016-0.037,0.025c-0.156,0.115-0.305,0.239-0.449,0.368
					c-0.023,0.021-0.044,0.044-0.062,0.068c-0.11,0.149-0.219,0.298-0.32,0.452c-0.004,0.007-0.008,0.013-0.012,0.02
					c-0.007,0.012-0.013,0.024-0.018,0.037c-0.065,0.165-0.132,0.331-0.183,0.502c-0.002,0.007-0.004,0.013-0.005,0.02
					c-0.001,0.003-0.001,0.005-0.001,0.008c0,0.001,0,0.003-0.001,0.004c-0.004,0.029-0.046,0.481-0.047,0.511
					c0,0.006-0.001,0.013,0,0.019c0.01,0.176,0.046,0.35,0.085,0.521c0.001,0.006,0.003,0.012,0.005,0.017
					c0.171,0.455,0.237,0.558,0.571,0.918c0.005,0.005,0.01,0.009,0.015,0.013c0.145,0.114,0.292,0.232,0.455,0.321
					c0.007,0.004,0.015,0.007,0.022,0.01c0.158,0.063,0.338,0.142,0.513,0.187c0.256,0.067,0.51,0.069,0.762,0.006
					c0.261-0.021,0.503-0.105,0.726-0.253c0.185-0.105,0.33-0.248,0.454-0.41c0.234-0.178,0.434-0.389,0.575-0.654l0.178-0.487
					C203.475,447.67,203.463,447.332,203.365,446.997z"/>
				<path style="fill:#CAD1B4;" d="M231.281,432.984c-0.089-0.254-0.238-0.471-0.446-0.651c-0.146-0.103-0.292-0.207-0.438-0.31
					c-0.313-0.162-0.645-0.237-0.996-0.226c-0.168,0.028-0.336,0.055-0.505,0.083c-0.345,0.105-0.641,0.289-0.888,0.552
					l-1.251,1.251c-0.195,0.194-0.329,0.421-0.4,0.681c-0.11,0.236-0.156,0.487-0.137,0.753c-0.001,0.266,0.062,0.513,0.189,0.741
					c0.089,0.254,0.238,0.471,0.446,0.651c0.146,0.103,0.292,0.207,0.438,0.31c0.313,0.162,0.645,0.237,0.996,0.226
					c0.168-0.028,0.337-0.055,0.505-0.083c0.345-0.105,0.641-0.289,0.888-0.552l1.251-1.251c0.195-0.194,0.329-0.421,0.4-0.681
					c0.11-0.236,0.156-0.487,0.137-0.753C231.47,433.459,231.407,433.212,231.281,432.984z"/>
				<path style="fill:#CAD1B4;" d="M177.073,478.436c-0.089-0.254-0.238-0.471-0.446-0.651c-0.194-0.195-0.421-0.329-0.681-0.4
					c-0.236-0.11-0.487-0.156-0.753-0.137c-0.168,0.028-0.336,0.055-0.505,0.083c-0.345,0.105-0.641,0.289-0.888,0.552
					c-0.103,0.146-0.207,0.292-0.31,0.438c-0.162,0.313-0.237,0.645-0.226,0.996v0.417c-0.001,0.266,0.062,0.513,0.189,0.741
					c0.089,0.254,0.238,0.471,0.446,0.651c0.194,0.195,0.421,0.329,0.681,0.4c0.236,0.11,0.487,0.156,0.753,0.137
					c0.168-0.028,0.337-0.055,0.505-0.083c0.345-0.105,0.641-0.289,0.888-0.552c0.103-0.146,0.207-0.292,0.31-0.438
					c0.162-0.313,0.237-0.645,0.226-0.996v-0.417C177.262,478.911,177.199,478.664,177.073,478.436z"/>
				<path style="fill:#CAD1B4;" d="M163.934,491.426c-2.58,0-2.434,3.998,0.14,3.998
					C166.653,495.423,166.507,491.426,163.934,491.426z"/>
				<path style="fill:#CAD1B4;" d="M182.282,487.256c-2.58,0-2.434,3.998,0.14,3.998
					C185.001,491.254,184.855,487.256,182.282,487.256z"/>
				<path style="fill:#CAD1B4;" d="M175.61,453.897c-2.58,0-2.434,3.998,0.14,3.998C178.329,457.895,178.183,453.897,175.61,453.897
					z"/>
				<path style="fill:#CAD1B4;" d="M179.78,424.291c-2.58,0-2.434,3.998,0.14,3.998C182.499,428.288,182.353,424.291,179.78,424.291
					z"/>
				<path style="fill:#CAD1B4;" d="M204.283,487.846c-0.105-0.345-0.289-0.641-0.552-0.888c-0.139-0.139-0.278-0.278-0.417-0.417
					c-0.194-0.195-0.421-0.329-0.681-0.4c-0.236-0.11-0.487-0.156-0.753-0.137c-0.266-0.001-0.513,0.062-0.741,0.189
					c-0.254,0.089-0.471,0.238-0.651,0.446c-0.103,0.146-0.207,0.292-0.31,0.438c-0.162,0.313-0.237,0.645-0.226,0.996
					c0.028,0.168,0.055,0.336,0.083,0.505c0.105,0.345,0.289,0.641,0.552,0.888l0.417,0.417c0.194,0.195,0.421,0.329,0.681,0.4
					c0.236,0.11,0.487,0.156,0.753,0.137c0.266,0.001,0.513-0.062,0.741-0.189c0.254-0.089,0.471-0.238,0.652-0.446
					c0.103-0.146,0.207-0.292,0.31-0.438c0.162-0.313,0.237-0.645,0.226-0.996C204.338,488.183,204.31,488.015,204.283,487.846z"/>
				<path style="fill:#CAD1B4;" d="M189.271,405.283c-0.105-0.345-0.289-0.641-0.552-0.888c-0.139-0.139-0.278-0.278-0.417-0.417
					c-0.194-0.195-0.421-0.329-0.681-0.4c-0.236-0.11-0.487-0.156-0.753-0.137c-0.266,0-0.513,0.062-0.741,0.189
					c-0.254,0.089-0.471,0.238-0.651,0.446c-0.103,0.146-0.207,0.292-0.31,0.438c-0.162,0.313-0.237,0.645-0.226,0.996
					c0.028,0.168,0.055,0.336,0.083,0.505c0.105,0.345,0.289,0.641,0.552,0.888c0.139,0.139,0.278,0.278,0.417,0.417
					c0.194,0.195,0.421,0.329,0.681,0.4c0.236,0.11,0.487,0.156,0.753,0.137c0.266,0.001,0.513-0.062,0.741-0.189
					c0.254-0.089,0.471-0.238,0.651-0.446c0.103-0.146,0.207-0.292,0.31-0.438c0.162-0.313,0.237-0.645,0.226-0.996L189.271,405.283
					z"/>
				<path style="fill:#CAD1B4;" d="M201.463,412.198c-2.58,0-2.434,3.998,0.14,3.998
					C204.182,416.196,204.036,412.198,201.463,412.198z"/>
			</g>
		</g>
		<g>
			<path style="fill:#D8996F;" d="M214.16,291.15c-3.9,10.94-11.57,20.77-21.88,26.06c-1.36,8.6-2.72,17.2-4.08,25.79
				c-1,6.28-2.01,12.62-3.76,18.71v0.01c-1.03,3.63-2.33,7.16-4.02,10.54c-4.55,9.06-12.57,16.96-22.54,18.76
				c-12.5,2.25-24.76-5.4-33.45-14.66c-13.68-14.6-21.87-33.62-26.64-53.06c-4.57-18.59-6.27-37.94-12.85-55.92
				c-2.88-7.84-6.71-16.01-6.62-24.12h-0.28c-1.34-7.99-3.47-15.84-6.33-23.42c-2.42-6.41-5.36-12.63-7.35-19.18
				c-2-6.56-3.01-13.59-1.45-20.26c1.46-6.25,5.06-11.76,7.56-17.66c2.79-6.59,4.22-13.7,7.12-20.24c0.7-1.59,1.95-3.39,3.66-3.14
				c1.39,0.21,2.18,1.69,2.54,3.05c0.69,2.54,0.66,5.22,0.62,7.85c-0.05,3.9-0.11,7.85-1.1,11.63c-0.68,2.58-1.79,5.04-2.57,7.6
				c-1.39,4.57-1.74,9.46-1,14.18c3.27-3.53,5.63-7.86,7.93-12.12c2.97-5.49,5.94-10.98,8.91-16.47c0.96-1.77,2.37-3.81,4.38-3.66
				c1.9,0.14,3.04,2.2,3.39,4.07c0.73,3.84-0.36,7.78-1.57,11.49c-0.81,2.46-1.67,4.9-2.6,7.32c1.8-3,3.61-5.98,5.57-8.85
				c1.22-1.78,2.68-3.65,4.79-4.12c0.65-0.14,1.35-0.14,1.94,0.17c0.73,0.39,1.16,1.18,1.42,1.97c0.79,2.39,0.36,5-0.28,7.44
				c-1.89,7.26-5.53,13.92-9.21,20.47c-2.74,4.88-5.52,9.74-8.33,14.58c8.76-6.86,15.92-15.67,24.91-22.23
				c1.02-0.75,2.49-1.45,3.43-0.61c0.39,0.35,0.56,0.88,0.67,1.39c0.54,2.56,0.06,5.26-0.96,7.66c-1.02,2.41-2.55,4.57-4.16,6.63
				c-3.61,4.61-7.66,8.86-11.75,13.04c-0.05,3.33,0.5,6.66,1.61,9.8c0.67,1.91,1.54,3.75,2.18,5.67c1.13,3.47,1.47,7.14,1.61,10.79
				c0.1,2.48,0.12,4.99-0.49,7.4c-0.47,1.84-1.34,3.63-2.64,4.98c7.03,13.5,15.2,26.4,24.41,38.52c1.25,1.65,2.52,3.29,3.81,4.92
				c-2.76-32.01-2.14-65.43,11.98-94.21c2.89-5.9,6.49-11.72,11.96-15.36c11.11-7.38,25.97-3.68,39.03-6.51
				c5.54,8.08,7.76,18.06,8.7,27.84c0.98,10.18,0.74,20.48,2.31,30.58c0.99,6.39,2.7,12.65,3.78,19.02
				C218.49,267.22,218.24,279.74,214.16,291.15z"/>
			<path style="fill:#B76A44;" d="M210.36,292.14c-1.38,3.32-3.65,6.17-5.89,8.97c-2.87,3.59-5.73,7.18-8.6,10.77
				c-1.13,1.42-2.76,3.71-3.59,5.33c2.83-6.46,1.26-13.81,1.55-20.85c0.29-7.16,1.39-14.35,3.95-21.05
				c2.57-6.69,6.67-12.9,12.3-17.33c1.48,8.69-4.77,15.02-5.65,23.79C204.16,284.47,211.39,289.64,210.36,292.14z"/>
			<path style="fill:#B76A44;" d="M137.767,293.666c14.408,13.978,23.58,27.214,28.237,46.973
				c-3.782-8.375-7.094-16.936-12.12-24.638C149.012,308.197,143.139,301.144,137.767,293.666L137.767,293.666z"/>
			<path style="fill:#B76A44;" d="M80.081,184.203c-0.198,2.409-1.852,4.484-4.167,5.191
				C76.103,186.981,77.772,184.918,80.081,184.203L80.081,184.203z"/>
			<path style="fill:#B76A44;" d="M100.806,173.899c-3.388,9.077-9.509,17.234-17.297,23
				C89.305,189.195,95.022,181.611,100.806,173.899L100.806,173.899z"/>
			<path style="fill:#B76A44;" d="M96.294,206.348c-0.431,2.141-2.262,3.717-4.448,3.799C92.269,208,94.112,206.438,96.294,206.348
				L96.294,206.348z"/>
		</g>
		<g>
			<path style="fill:#4C344A;" d="M345.92,147.93c0.92,3.12,1.36,6.38,1.25,9.65c-0.27,8.08-3.62,16.05-9.47,21.66
				c-0.24,0.23-0.61,0.21-0.8-0.08c-0.51-0.81-1.26-1.38-2.17-1.68c-4.7-1.53-8.54,2.65-12.42,4.46c-2.14,1.01-4.39,1.27-6.71,0.81
				c-0.11-0.03-0.22-0.07-0.34-0.09c-0.38-0.02-0.75-0.06-1.13-0.13c-1.5-0.28-2.87-0.96-4.22-1.7c-0.3-0.12-0.6-0.24-0.91-0.36
				c-2.32-0.88-4.72-1.54-7.22-1.21c-2.56,0.34-4.91,1.56-7.06,2.92c-4.39,2.79-8.44,6.65-13.76,7.52c-2.34,0.38-4.64,0-6.76-1.02
				c-1.92-0.93-3.61-2.25-5.31-3.52c-1.71-1.28-3.48-2.58-5.51-3.35c-2.49-0.94-5.17-0.78-7.73-0.2c-2.64,0.6-5.19,1.57-7.82,2.23
				c-2.28,0.57-4.59,0.83-6.93,0.62c-4.38-0.41-8.59-2.29-11.85-5.23c-1.62-1.46-3-3.19-4.02-5.11c-1.28-2.41-2.05-5.03-2.93-7.6
				c-0.49-1.42-1.09-2.94-1.85-4.36c-2.18-2.04-4.88-3.54-7.8-4.19c-4.61-1.03-9.78-0.17-13.8-2.65c-2.72-1.67-4.39-4.61-5.61-7.56
				c-1.22-2.94-2.11-6.05-3.8-8.76c-1.97-3.15-4.99-5.62-8.47-6.94c5.03-3.12,7.95-9.5,8.45-15.6c0.36-4.51-0.09-9.53,2.76-13.04
				c1.93-2.37,4.95-3.46,7.59-5.02c5.45-3.23,9.42-8.84,10.68-15.05c0.76-3.75,0.6-7.8,2.47-11.16c2.67-4.79,8.52-6.57,13.43-9
				c5.01-2.49,9.5-6.03,13.06-10.35c3.26-3.95,5.91-8.65,10.32-11.26c7.12-4.2,16.16-1.57,24.37-2.53
				c8.06-0.93,15.65-5.43,23.74-4.89c7.85,0.52,14.64,5.75,19.35,12.11c6.01,0.04,12,2.49,16.28,6.72
				c4.67,4.59,7.26,11.22,6.94,17.78c-0.16,3.18-0.97,6.35-0.65,9.51c0.78,7.67,7.93,13.65,8.34,21.36
				c0.56,10.06-10.51,18.22-9.28,28.21c0.55,4.6,3.64,8.42,5.55,12.64C344.95,144.23,345.53,146.06,345.92,147.93z"/>
			<path style="fill:#3A2539;" d="M304,147c-2-4-2-9,0-13c9.956-18.49,8.777-40.01-1.003-56.657
				c-4.531,2.449-9.078,4.86-13.667,7.118c-1.016,12.62-6.14,24.053-18.331,29.539c-14,7-41-1-45,18
				c-2.098,10.49-6.126,19.874-12.364,26.288c2.463,0.757,4.733,2.112,6.614,3.872c0.76,1.42,1.36,2.94,1.85,4.36
				c0.88,2.57,1.65,5.19,2.93,7.6c1.02,1.92,2.4,3.65,4.02,5.11c3.26,2.94,7.47,4.82,11.85,5.23c2.34,0.21,4.65-0.05,6.93-0.62
				c2.63-0.66,5.18-1.63,7.82-2.23c2.56-0.58,5.24-0.74,7.73,0.2c2.03,0.77,3.8,2.07,5.51,3.35c1.7,1.27,3.39,2.59,5.31,3.52
				c2.12,1.02,4.42,1.4,6.76,1.02c5.32-0.87,9.37-4.73,13.76-7.52c2.15-1.36,4.5-2.58,7.06-2.92c2.5-0.33,4.9,0.33,7.22,1.21
				c0.31,0.12,0.61,0.24,0.91,0.36c1.273,0.698,2.567,1.33,3.967,1.636C318.737,170.732,312.017,158.224,304,147z"/>
			<path style="fill:#D8996F;" d="M304.98,200.22c-1.31,1.48-1.76,3.62-2.13,5.61c-1.3,6.99-2.6,13.98-3.91,20.97
				c-0.76,4.09-1.53,8.22-3.16,12.04c-1.64,3.83-4.22,7.39-7.85,9.42c-5.03,2.83-11.24,2.36-16.86,1.07
				c-12.62-2.89-24.28-9.53-33.56-18.55c-9.27-9.03-16.16-20.41-20.34-32.66c-2.62-7.69-4.47-16.19-10.21-21.85
				c7.87-3.03,14.56-8.79,19.57-15.74c1.55-2.15,2.94-4.42,4.15-6.75c5.27-10.14,7.61-21.53,8.93-32.93
				c1.12,0.87,2.32,1.64,3.58,2.3l1.27,0.35c-1.12,4.2-0.82,8.65,0.51,12.86c1.18,3.77,3.18,7.35,5.7,10.38
				c5.64,6.78,13.51,11.29,21.44,15.16c1.89,0.92,3.9,1.82,5.95,2.43c-0.98,3.18-1.3,6.55-1,9.87c0.18,1.97,0.58,3.92,1.21,5.8
				c1.92,5.81,5.89,10.9,10.95,14.34c0.44,0.3,0.89,0.59,1.35,0.86C294.93,197.84,299.89,199.36,304.98,200.22z"/>
			<path style="fill:#B76A44;" d="M290.57,195.2c-4.84,1.04-10.02,0.67-14.4-1.66c-2.68-1.43-4.88-3.55-6.43-6.16
				c-1.62-2.73-2.56-5.79-3.52-8.79c-1.04-3.27-2.21-6.48-3.84-9.51c-1.66-3.09-3.78-5.82-6.17-8.39c-2.26-2.45-4.63-4.82-6.52-7.57
				c-1.73-2.54-3.01-5.39-3.79-8.36c-0.73-2.74-1.04-5.58-0.93-8.4c1.18,3.77,3.18,7.35,5.7,10.38
				c5.64,6.78,13.51,11.29,21.44,15.16c1.89,0.92,3.9,1.82,5.95,2.43c-0.98,3.18-1.3,6.55-1,9.87c0.18,1.97,0.58,3.92,1.21,5.8
				c1.92,5.81,5.89,10.9,10.95,14.34C289.66,194.64,290.11,194.93,290.57,195.2z"/>
			<path style="fill:#D8996F;" d="M320.921,110.858c0,0-2.958,4.067-4.021,7.55c-1.711,5.63-1.152,11.564-4.309,18.978
				c-3.974,9.334-11.588,16.578-18.98,23.525c-1.823,1.721-3.635,3.554-5.924,4.557c-2.967,1.296-6.197,1.002-9.356,0.041
				c-2.076-0.618-4.111-1.529-6.025-2.461c-8.03-3.919-15.999-8.486-21.71-15.351c-5.397-6.491-8.445-15.462-6.288-23.533
				l-1.286-0.354c-1.276-0.668-2.491-1.448-3.625-2.329c-3.24-2.542-5.843-5.893-7.442-9.691c-0.608-1.438-1.073-2.926-1.387-4.455
				c3.473,1.023,7.169,1.286,10.754,0.719c5.63-0.891,10.916-3.817,14.652-8.131c4.688-5.407,7.352-13.164,13.944-15.969
				c5.488-2.329,12.151-0.415,17.498-3.038c5.792-2.835,8.314-10.126,14.065-13.052c3.615-1.833,8.111-1.59,11.736,0.233
				c3.625,1.823,6.693,4.982,8.384,8.668l0,0C326.014,87.527,325.498,100.124,320.921,110.858z"/>
			<path style="fill:#B76A44;" d="M245.011,123.409c-0.29,5.013-1.152,10.316,0.643,15.046c2.169,4.45,4.623,9.246,7.831,13.006
				c2.225,2.53,4.931,4.704,7.528,7.033c-3.07-1.635-6.077-3.464-8.667-5.938c-3.877-3.845-6.286-8.504-8.473-13.406
				C242.142,134.017,243.467,128.383,245.011,123.409L245.011,123.409z"/>
			<path style="fill:#B76A44;" d="M282.365,141.81c1.637,0.365,3.554,1.012,5.128,1.469c1.574,0.482,3.517,0.984,5.094,1.585
				C289.115,146.591,284.326,145.15,282.365,141.81L282.365,141.81z"/>
			<path style="fill:#4C344A;" d="M269.015,94.578c5.346,4.437,11.583,7.176,18.461,8.144
				C280.537,104.74,272.209,101.056,269.015,94.578L269.015,94.578z"/>
			<path style="fill:#4C344A;" d="M305.702,109.732c3.841,3.066,8.075,4.932,12.924,5.73
				C313.842,117.698,307.264,114.771,305.702,109.732L305.702,109.732z"/>
			<path style="fill:#4C344A;" d="M270.746,89.775c2.38-2.329,5.519-3.838,8.769-4.557c3.544-0.78,7.24-0.658,10.825-0.061
				c1.894,0.314,3.858,0.81,5.255,2.147c0.577,0.547,1.053,1.286,1.073,2.086c0.01,0.597-0.223,1.175-0.516,1.691
				c-0.294,0.496-0.678,0.972-1.215,1.175c-1.002,0.375-2.066-0.314-2.957-0.901c-3.23-2.137-7.038-3.392-10.906-3.595
				C277.531,87.578,273.956,88.277,270.746,89.775z"/>
			<path style="fill:#B76A44;" d="M298.418,138.91c0.268,0.962,0.18,1.992-0.004,2.979c-0.071,0.41-0.163,0.816-0.244,1.225
				c-1.677-0.301-3.31-0.791-4.925-1.339c-3.192-1.082-6.336-2.382-9.119-4.281c-1.796-1.224-3.448-2.706-4.773-4.443
				c2.767,0.478,5.598,0.443,8.394,0.282c0.823-0.05,1.666-0.098,2.466,0.114c1.738,0.462,2.958,2.216,3.132,4.013
				c0.971-0.501,2.082-0.985,3.136-0.68C297.446,137.044,298.141,137.936,298.418,138.91z"/>
			<path style="fill:#CC835A;" d="M272.184,108.883c0.283,4.111-1.995,7.959-2.501,12.05c-0.253,2.076-0.051,4.182-0.253,6.258
				c-0.213,2.086-0.932,4.253-2.592,5.529c-1.802,1.367-4.405,1.377-6.45,0.415c-2.055-0.952-3.635-2.724-4.83-4.638
				c-2.278-3.645-3.352-8-3.129-12.293v-0.01c0-1.995,0.375-4.03,1.144-5.863c0.81-1.964,2.066-3.696,3.797-4.921
				c0.81-0.567,1.691-1.013,2.613-1.377c2.228-0.891,4.698-1.286,7.058-0.84c1.478,0.284,2.947,0.932,3.888,2.106
				C271.739,106.301,272.093,107.597,272.184,108.883z"/>
			<path style="fill:#4C344A;" d="M321.159,111.768c-0.968-1.943-2.025-3.864-3.387-5.55c-1.73-1.687-3.926-2.964-6.105-4.038
				c-0.898-0.441-1.941-1.056-1.985-2.061c-0.028-0.66,0.442-1.266,1.047-1.552c0.595-0.285,1.289-0.287,1.938-0.18
				c1.738,0.306,3.245,1.4,4.47,2.675c2.13,2.226,3.571,5.096,4.092,8.122C321.375,110.043,321.446,110.943,321.159,111.768z"/>
			<path style="fill:#CC835A;" d="M300.972,124.781c0.03,0.81-0.132,1.529-0.689,2.137c-0.547,0.597-1.235,1.073-1.965,1.408
				c-1.468,0.699-3.18,0.77-4.668,0.081c-1.499-0.689-2.44-2.137-2.785-3.706c-0.415-1.873-0.071-3.817,0.284-5.671
				c0.364-1.914,0.861-3.807,1.559-5.62c1.245-3.25,3.24-6.217,6.076-8.273c0.172-0.122,0.334-0.111,0.476-0.03
				c0.243,0.061,0.456,0.273,0.395,0.587c-0.466,2.319-0.952,4.658-0.871,7.038c0.081,2.228,0.689,4.374,1.235,6.521
				C300.476,121.065,300.922,122.908,300.972,124.781z"/>
			<path style="fill:#B76A44;" d="M310.229,97.434c-2.226,1.516-4.753,3.057-7.063,4.449c-2.378,1.331-2.876,4.102-3.362,6.567
				c-0.883,5.478,0.659,10.756,2.17,16.013c0.614,3.993-6.349,6.082-9.387,5.279c3.02-0.162,6.243-1.48,7.834-4.061
				c0.273-1.129-0.606-2.212-0.921-3.438c-0.963-2.691-1.638-5.469-1.874-8.34c-0.235-4.348,0.344-10.97,4.892-13.17
				C304.979,99.618,307.715,98.384,310.229,97.434L310.229,97.434z"/>
		</g>
		<g>
			<path style="fill:#AD6045;" d="M375.012,347.923l-1.4,16.18c-0.38,4.37-4.82,7.76-10.18,7.76h-81.18c-5.36,0-9.8-3.39-10.18-7.76
				l-1.4-16.18c-0.2-2.35,2.07-4.34,4.94-4.34h94.46C372.942,343.583,375.212,345.573,375.012,347.923z"/>
			<path style="fill:#AD6045;" d="M363.432,371.863l-0.36,2.58l-7.59,55.07c-0.32,2.34-1.96,4.29-4.22,4.99
				c-27.29,8.4-50.04,2.86-58.57,0.09c-2.2-0.72-3.8-2.64-4.12-4.94l-4.69-33.58l-3.39-24.21H363.432z"/>
			<path style="fill:#93503B;" d="M363.432,371.863l-0.36,2.58c-4.03,4.17-9.14,7.24-14.35,9.7c-6.97,3.29-14.34,5.89-21.73,8.06
				c-7.94,2.33-16.1,4.02-24.37,4.61c-6.24,0.43-12.56,0.25-18.74-0.74l-3.39-24.21H363.432z"/>
			<g>
				<path style="fill:#8B966C;" d="M381.8,179.18c0.39,5.73,1.75,11.35,2.24,17.07c0.81,9.22-0.72,18.8-5.38,26.8
					c-2.62,4.52-6.17,8.44-10.01,11.99c-10.72,9.89-23.91,17.14-33.23,28.36c-5.43,6.52-9.32,23.26-9.32,23.26
					c0.21,0.92,0.4,1.84,0.57,2.77c0.81,4.24,1.26,8.53,1.09,12.85c-0.18,4.48-0.89,8.91-1.64,13.32
					c-0.77,4.47-1.61,8.94-1.97,13.47c-0.18,2.23-0.25,4.48-0.13,6.73c0.11,2.18,0.26,4.52,1.15,6.55c0.26,0.59-0.71,0.87-0.96,0.29
					c-0.43-0.98-0.66-2.01-0.82-3.06c-1.39-9.06,0.79-18.16,2.23-27.06c0.73-4.55,1.31-9.14,1.16-13.76
					c-0.15-4.41-0.92-8.76-1.91-13.06c-1.95-8.51-4.75-16.92-5.22-25.7c-0.27-5.16,0.46-10.22,2.13-15
					c0.01-0.09,0.03-0.19,0.05-0.28c0.44-1.96,1.4-3.77,2.4-5.52c2.42-4.24,5.12-8.33,8.08-12.21c4-5.25,8.5-10.18,11.6-16.01
					c5.52-10.37,6.11-22.61,9.76-33.78c7.12-21.82,26.85-39,49.44-43.05C388.98,144.21,380.62,161.87,381.8,179.18z"/>
				<path style="fill:#A0A984;" d="M315.762,328.562c1.44,4.83,3.31,9.68,6.59,13.45c-12.27-4.85-22.21-14.88-28.83-26.38
					c-7.28-12.66-10.94-27.07-13.59-41.43c-2.65-14.37-4.39-28.93-8.22-43.03c-1.25-4.59-2.73-9.13-4.82-13.4
					c-2.02-4.13-4.61-7.98-7.67-11.42c16.96,6.33,29.52,21.23,37.44,37.5c3.31,6.79,5.95,13.9,7.87,21.2
					C310.012,285.862,309.622,307.942,315.762,328.562z"/>
				<path style="fill:#8B966C;" d="M397.402,177.682c0.96-18.85,14.55-36.42,32.56-42.08c-4.99,5.95-6.75,13.93-7.63,21.65
					c-0.89,7.71-1.09,15.61-3.62,22.95c-3.75,10.89-12.21,19.41-20.49,27.41c-2.45,2.36-4.94,4.74-7.07,7.39
					c2.95-8.93,5.79-17.99,6.15-27.37C397.422,184.322,397.242,181.002,397.402,177.682z"/>
				<path style="fill:#8B966C;" d="M381.932,289.492c9.62-2.09,19.54-2.3,29.39-2.51c-8.26,7.3-19.03,11.68-30.04,12.22
					c-8.04,0.4-16.68-1.07-23.88,2.22C364.132,295.192,372.942,291.452,381.932,289.492z"/>
				<path style="fill:#A0A984;" d="M467.642,190.322c-14.36,4.03-26.77,14.52-33.13,28.01c-6.15,13.06-6.86,28.56-15.2,40.35
					c-7.14,10.09-18.86,15.92-30.58,19.87c-7.18,2.43-14.57,4.31-21.53,7.33c-6.95,3.02-13.58,7.33-17.88,13.58
					c-4.39,6.39-5.99,14.23-8.48,21.58c-2.24,6.62-5.69,13.39-11.49,17.07c4.4-16.65-1.82-34.87,2.52-51.62
					c1.72-6.61,5.08-12.79,9.71-17.82c9.81-10.68,24.43-15.58,35.45-25.01c12.27-10.49,19.37-25.95,31.31-36.82
					C424.002,192.612,446.622,187.852,467.642,190.322z"/>
				<path style="fill:#8B966C;" d="M331.609,332.369c2.323-12.435,4.253-24.868,7.067-37.216
					c3.264-12.576,13.411-22.553,25.389-27.142c5.951-2.461,12.407-2.785,18.599-3.964c6.027-1.249,11.509-4.358,15.935-8.622
					c2.926-2.865,5.435-6.183,7.332-9.829c3.88-7.288,5.359-15.76,9.286-23.387c7.631-15.183,22.988-26.29,39.828-28.412
					c-16.467,2.922-31.252,14.043-38.446,29.089c-3.595,7.459-5.106,15.881-9.053,23.551c-3.938,7.612-10.284,14.14-18.283,17.605
					c-7.809,3.378-16.736,2.409-24.546,5.665c-11.513,4.381-21.393,13.777-24.829,25.786
					C336.857,307.673,334.511,320.133,331.609,332.369L331.609,332.369z"/>
				<path style="fill:#8B966C;" d="M267.852,215.826c3.733,4.089,7.226,8.395,10.615,12.783c3.252,4.549,7.032,8.786,8.916,14.178
					c1.576,4.655,2.431,11.523,3.372,16.361c3.358,16.194,3.97,33.05,8.194,48.97c2.969,10.517,8.074,20.768,16.647,27.844
					c-9.15-6.484-14.879-16.847-18.144-27.402c-4.746-16.104-5.355-32.766-8.561-49.102c-0.823-4.702-1.631-11.703-2.986-16.187
					c-1.654-5.159-5.282-9.569-8.227-14.09C274.568,224.616,271.239,220.204,267.852,215.826L267.852,215.826z"/>
				<path style="fill:#A0A984;" d="M324.944,280.191c-2.441-14.506,2.088-30.038,11.888-41.062
					c9.371-10.863,23.272-18.427,27.694-32.728c3.248-10.314,1.434-21.698,3-32.43c1.003-7.366,4.058-14.367,8.381-20.376
					c6.468-8.931,15.625-16.347,26.387-18.85c-10.51,3.09-19.167,10.629-25.356,19.579c-4.069,5.935-6.754,12.759-7.7,19.885
					c-1.469,10.858,0.469,22.124-2.807,32.791c-4.561,14.515-18.764,22.539-28.458,33.15
					C328.102,250.76,323.369,265.774,324.944,280.191L324.944,280.191z"/>
				<path style="fill:#A0A984;" d="M426.448,139.698c-4.356,4.662-8.826,9.294-11.96,14.718c-4.772,8.226-5.27,18.117-7.269,27.321
					c-2.046,9.421-6.024,18.505-11.724,26.246c6.411-11.16,9.762-23.339,11.495-36.035
					C409.295,156.69,414.699,149.235,426.448,139.698L426.448,139.698z"/>
			</g>
		</g>
		<g>
			<path style="fill:#D8996F;" d="M398.59,409.49c-1.52,5.81-3.45,11.64-7.11,16.4c-3.66,4.76-9.33,8.31-15.32,8.07
				c-3.9-0.15-7.56-1.84-11.09-3.5c-7.03-3.31-14.06-6.61-21.09-9.92c-2.29-1.07-4.58-2.15-6.66-3.59
				c-4.84-3.33-8.2-8.35-11.43-13.26c-0.62-0.95-1.25-2.25-0.54-3.15c0.72-0.93,2.04-0.55,3.28-0.46c-1.87-0.98-3.61-2.2-5.16-3.63
				c-1.11-1.02-2.14-2.17-2.79-3.53c-0.33-0.69-0.55-1.5-0.31-2.24c0.16-0.48,0.52-0.88,0.92-1.19c1.25-0.97,2.88-1.16,4.49-1.21
				c-1.49-1-2.92-2.13-3.79-3.68c-0.39-0.68-0.66-1.48-0.51-2.24c0.31-1.55,2.08-2.29,3.63-2.51c3.83-0.56,7.7,0.41,11.45,1.38
				l0.09-0.1c-1.06-0.9-1.93-1.99-1.86-3.32c0.07-1.48,1.31-2.64,2.59-3.4c0.59-0.35,1.21-0.65,1.88-0.81
				c0.99-0.24,2.02-0.13,3.03-0.03c4.3,0.45,8.58,0.89,12.87,1.34c5.15-1,9.47-5.91,14.68-5.13c3.47,0.52,5.98,3.43,8.53,5.83
				c4.02,3.79,8.8,6.67,12.95,10.29c4.16,3.62,7.82,8.3,8.46,13.78C400.17,402.97,399.43,406.28,398.59,409.49z"/>
			<path style="fill:#B76A44;" d="M328.899,400.072c9.873,5.044,19.422,10.691,30.382,13.042
				C347.88,413.555,337.199,407.426,328.899,400.072L328.899,400.072z"/>
			<path style="fill:#B76A44;" d="M325.323,388.123c13.16,2.485,23.392,13.383,37.131,13.789
				C348.465,404.346,337.37,393.179,325.323,388.123L325.323,388.123z"/>
			<path style="fill:#B76A44;" d="M336.208,380.627c6.327,1.537,12.475,3.42,18.76,5.044c3.747,1.019,7.405,1.996,11.348,2.107
				C357.939,390.092,343.568,384.948,336.208,380.627L336.208,380.627z"/>
			<path style="fill:#B76A44;" d="M359.45,375.57c5.335,0.771,10.431,1.915,15.575,3.53
				C369.686,380.264,363.769,378.913,359.45,375.57L359.45,375.57z"/>
		</g>
	</g>
	<g>
		<path style="fill:#F5E9D8;" d="M368.97,261.124c0-7.64,6.25-13.9,13.9-13.9h44.24c7.65,0,13.9,6.26,13.9,13.9
			c0,3.82-1.56,7.3-4.08,9.82c-2.52,2.52-6,4.08-9.82,4.08h-44.24C375.22,275.024,368.97,268.774,368.97,261.124z"/>
		<path style="fill:#A0A984;" d="M382.45,249.8h45.342c6.228,0,11.324,5.096,11.324,11.324l0,0c0,6.228-5.096,11.324-11.324,11.324
			H382.45c-6.228,0-11.324-5.096-11.324-11.324l0,0C371.127,254.896,376.222,249.8,382.45,249.8z"/>
		<circle style="fill:#F5E9D8;" cx="427.99" cy="261.124" r="9.786"/>
	</g>
</g>
</svg>
